<?xml version="1.0" encoding="UTF-8"?>
<svg version="1.1" xmlns="http://www.w3.org/2000/svg" width="386" height="398">
<path d="M0 0 C8.30885624 6.10409395 10.13450617 17.32738915 11.6875 26.875 C19.99284646 83.53069458 8.96602915 146.40685567 -25.6015625 192.86328125 C-28.47952985 196.62713758 -31.40154083 200.34819016 -34.40625 204.01171875 C-36.14026341 206.11551289 -36.14026341 206.11551289 -38 209 C-38.66 209 -39.32 209 -40 209 C-40.66 210.32 -41.32 211.64 -42 213 C-42.66 213 -43.32 213 -44 213 C-44.226875 213.56203125 -44.45375 214.1240625 -44.6875 214.703125 C-58.50604504 238.88557882 -98.8905921 256.02643316 -124 264 C-124.74024414 264.23799316 -125.48048828 264.47598633 -126.24316406 264.72119141 C-163.20125791 276.38068625 -202.28375423 274.912925 -239 263 C-239.66370605 262.78649902 -240.32741211 262.57299805 -241.01123047 262.35302734 C-271.40150535 252.34255304 -302.66494259 231.49698761 -320 204 C-320 203.34 -320 202.68 -320 202 C-320.66 202 -321.32 202 -322 202 C-323.01799273 199.67315947 -324.01409574 197.34041236 -325 195 C-325.28617187 194.35160156 -325.57234375 193.70320312 -325.8671875 193.03515625 C-328.27663135 187.24101747 -329.03729878 182.11189633 -327 176 C-323.08832734 173.80946331 -320.87695472 173 -316.375 173 C-309.99732403 174.88968177 -306.07716295 181.17759787 -301.875 186.125 C-288.67828777 201.44955131 -274.849263 213.50951311 -257 223 C-255.36998047 223.89332031 -255.36998047 223.89332031 -253.70703125 224.8046875 C-216.99220409 244.17358811 -174.04890309 247.118384 -134.46289062 235.39941406 C-91.55692805 222.12669542 -56.17657187 194.43911486 -34.79980469 154.77294922 C-14.28816193 115.28253214 -7.2978387 66.07221536 -15.0625 22.1875 C-16.43245562 13.63815288 -17.02333776 6.53500665 -12 -1 C-7.62541328 -2.45819557 -4.24743203 -1.68006301 0 0 Z " fill="#3F8967" transform="translate(342,45)"/>
<path d="M0 0 C12.39144386 7.65860072 17.96346619 27.87117379 22 41 C22.3403125 42.08152344 22.680625 43.16304687 23.03125 44.27734375 C25.33283856 52.38618121 27.3840334 62.4077727 23.1875 70.1875 C21 73 21 73 18 75 C13.16010751 75.5553975 11.03783322 75.61049013 6.8125 73.125 C-0.32208191 66.21882995 -2.80282148 55.08296291 -5.6875 45.9375 C-6.45538025 43.50693688 -7.22976197 41.0784148 -8.01171875 38.65234375 C-8.34647217 37.59007568 -8.68122559 36.52780762 -9.02612305 35.43334961 C-9.74775976 32.84936111 -9.74775976 32.84936111 -12 32 C-12.27193195 29.89252742 -12.5283272 27.78180502 -12.703125 25.6640625 C-13.0144818 22.87004487 -13.61763938 20.23765876 -14.25 17.5 C-15.27533874 12.00325922 -14.71367287 7.90900373 -12 3 C-8.2242339 -1.40506045 -5.46376522 -1.78985412 0 0 Z " fill="#3F8866" transform="translate(91,47)"/>
<path d="M0 0 C4.37972917 0.91953878 6.13621831 3.98014377 8.51171875 7.52734375 C9.17171875 8.18734375 9.83171875 8.84734375 10.51171875 9.52734375 C17.9937684 23.46820461 26.28815456 41.75895306 23.03515625 57.890625 C21.64811149 61.44969039 19.59112226 64.30333011 16.51171875 66.52734375 C12.26428314 67.78584319 10.33136893 67.92913306 6.32421875 65.96484375 C3.34681022 63.38442302 1.44627341 60.95001738 -0.48828125 57.52734375 C-0.48828125 56.86734375 -0.48828125 56.20734375 -0.48828125 55.52734375 C-1.47828125 55.19734375 -2.46828125 54.86734375 -3.48828125 54.52734375 C-3.48828125 53.53734375 -3.48828125 52.54734375 -3.48828125 51.52734375 C-4.01945127 49.98751577 -4.61093692 48.46805727 -5.23828125 46.96484375 C-5.60308594 46.07410156 -5.96789062 45.18335938 -6.34375 44.265625 C-7.06877135 42.53101761 -7.79980869 40.79890226 -8.5390625 39.0703125 C-12.56234554 29.45482138 -16.05532402 19.07081628 -14.48828125 8.52734375 C-11.01637965 1.7032613 -7.38153194 -0.09698363 0 0 Z " fill="#3F8967" transform="translate(220.48828125,6.47265625)"/>
<path d="M0 0 C1.94604492 0.7253418 1.94604492 0.7253418 4 2 C4.65356445 3.98364258 4.65356445 3.98364258 4.86328125 6.39453125 C4.98606445 7.70454102 4.98606445 7.70454102 5.11132812 9.04101562 C5.17771484 9.95560547 5.24410156 10.87019531 5.3125 11.8125 C5.44108398 13.16698242 5.44108398 13.16698242 5.57226562 14.54882812 C6.2605899 22.55574554 5.189001 27.96473526 0.8125 34.875 C-2.39462418 36.8656288 -5.29594349 36.35276729 -9 36 C-11 33 -11 33 -10.625 30.3125 C-10.41875 29.549375 -10.2125 28.78625 -10 28 C-8.68 28 -7.36 28 -6 28 C-5.34 28.66 -4.68 29.32 -4 30 C-3.34 29.67 -2.68 29.34 -2 29 C-2 26.36 -2 23.72 -2 21 C-2.94875 21.495 -3.8975 21.99 -4.875 22.5 C-8 24 -8 24 -10 24 C-10.66 24.66 -11.32 25.32 -12 26 C-15.29714793 25.67028521 -16.6226839 25.3773161 -19 23 C-19.5775 23.94875 -20.155 24.8975 -20.75 25.875 C-22.82816551 28.76134098 -23.75468075 29.84095741 -27 31 C-27 30.34 -27 29.68 -27 29 C-27.66 29 -28.32 29 -29 29 C-29.12375 29.928125 -29.12375 29.928125 -29.25 30.875 C-30 33 -30 33 -31.875 34.25 C-34 35 -34 35 -37 35 C-37 33.68 -37 32.36 -37 31 C-37.66 31 -38.32 31 -39 31 C-39.309375 31.639375 -39.61875 32.27875 -39.9375 32.9375 C-41 35 -41 35 -42 36 C-45.17062465 36.42846279 -46.60255876 36.25779973 -49.3125 34.5 C-51.65822468 31.02485232 -51.73973656 28.00503833 -51 24 C-49.58048835 20.17415041 -47.69618226 17.51384881 -44.375 15.0625 C-42 14 -42 14 -40 14 C-40.01160156 13.22914063 -40.02320313 12.45828125 -40.03515625 11.6640625 C-40.04869141 10.15972656 -40.04869141 10.15972656 -40.0625 8.625 C-40.07410156 7.62726563 -40.08570313 6.62953125 -40.09765625 5.6015625 C-40 3 -40 3 -39 1 C-37.68 1.33 -36.36 1.66 -35 2 C-33.71702277 9.41148455 -32.74484081 16.47280398 -33 24 C-33 22.33333333 -33 20.66666667 -33 19 C-32.34 19 -31.68 19 -31 19 C-30.79375 17.948125 -30.5875 16.89625 -30.375 15.8125 C-29.04419696 11.24309934 -27.06672344 9.45538019 -23 7 C-19.125 7.1875 -19.125 7.1875 -16 8 C-14.875 12.75 -14.875 12.75 -16 15 C-15.34 15 -14.68 15 -14 15 C-12.78306124 12.56612247 -12.68040104 10.58161154 -12.4375 7.875 C-12.35371094 6.96492188 -12.26992188 6.05484375 -12.18359375 5.1171875 C-12.09271484 4.06917969 -12.09271484 4.06917969 -12 3 C-10.68 2.67 -9.36 2.34 -8 2 C-6.71553081 4.56893838 -6.67022856 6.76576337 -6.4375 9.625 C-6.35371094 10.62789063 -6.26992188 11.63078125 -6.18359375 12.6640625 C-6.12300781 13.43492187 -6.06242187 14.20578125 -6 15 C-5.34 14.67 -4.68 14.34 -4 14 C-3.38255961 11.25524825 -3.38255961 11.25524825 -3 8.0625 C-2.22008253 2.22008253 -2.22008253 2.22008253 0 0 Z M-25 16 C-25.33 18.31 -25.66 20.62 -26 23 C-24.35444301 21.77190909 -24.35444301 21.77190909 -23 20 C-23.22757731 17.83700789 -23.22757731 17.83700789 -24 16 C-24.33 16 -24.66 16 -25 16 Z M-15 17 C-14 19 -14 19 -14 19 Z M-43 20.5625 C-45.54340611 23.6622762 -45.69718346 26.06338504 -46 30 C-42.86615486 28.49540371 -42.86615486 28.49540371 -40 26 C-39.49874717 22.33142278 -39.49874717 22.33142278 -40 19 C-41.29166136 18.89739266 -41.29166136 18.89739266 -43 20.5625 Z " fill="#3B7B58" transform="translate(369,292)"/>
<path d="M0 0 C2.40870498 1.78034716 2.98315903 2.92957412 3.6875 5.875 C4.55102333 14.54697896 5.39027769 24.13262237 1 32 C-1.3125 34.125 -1.3125 34.125 -4 35 C-7.3125 34.6875 -7.3125 34.6875 -10 34 C-10.66 32.02 -11.32 30.04 -12 28 C-8.71023192 26.90341064 -7.28696233 27.20046862 -4 28 C-3.34 25.36 -2.68 22.72 -2 20 C-5.12197478 21.3089572 -5.12197478 21.3089572 -7 24 C-8.98 23.34 -10.96 22.68 -13 22 C-12.67 21.01 -12.34 20.02 -12 19 C-12.09268505 16.93381251 -12.09268505 16.93381251 -12.4375 14.8125 C-12.623125 13.554375 -12.80875 12.29625 -13 11 C-16.38499719 13.77743359 -18.27015982 15.71140687 -18.75 20.0625 C-18.8325 21.361875 -18.915 22.66125 -19 24 C-19.30169066 25.34084736 -19.61517681 26.6806062 -20 28 C-22.33333333 28 -24.66666667 28 -27 28 C-27.433125 28.61875 -27.86625 29.2375 -28.3125 29.875 C-30.8842927 33.11355377 -33.58290535 33.75805701 -37.5625 34.4375 C-40 34 -40 34 -42.3125 32.1875 C-44.79570064 27.4970099 -44.7821632 23.20138529 -44 18 C-41.99690489 14.49458355 -39.90584356 12.22057611 -36 11 C-33.75 11.375 -33.75 11.375 -32 12 C-30.43340381 17.78435518 -30.43340381 17.78435518 -32.046875 21.24609375 C-33.30048084 23.22157935 -34.59564049 25.12914044 -36 27 C-32.10736071 24.95048533 -32.10736071 24.95048533 -29 22 C-28.09130923 18.32393281 -27.95370116 14.77666292 -28 11 C-24.25 9.875 -24.25 9.875 -22 11 C-21.34 10.21625 -20.68 9.4325 -20 8.625 C-16.26279291 5.3549438 -13.81602145 4.89790231 -9 4 C-6.43383368 7.84924948 -6.44902324 10.4349304 -6 15 C-3.53420044 10.60444427 -2.66794126 6.96184938 -2 2 C-1.34 1.34 -0.68 0.68 0 0 Z M-37 18 C-37 21 -37 21 -37 21 Z " fill="#4B8766" transform="translate(302,312)"/>
<path d="M0 0 C3 2 3 2 3.765625 4.36328125 C5.11384905 12.57222608 6.45015534 22.05054581 2.63671875 29.75390625 C1 32 1 32 -2 34 C-6.29890703 34.31264778 -9.31506345 34.287202 -13 32 C-13.66 31.690625 -14.32 31.38125 -15 31.0625 C-17 30 -17 30 -19.0625 28.375 C-21.0117832 26.7106265 -21.0117832 26.7106265 -24 27 C-24.02578125 27.77085937 -24.0515625 28.54171875 -24.078125 29.3359375 C-24.13484375 30.33882813 -24.1915625 31.34171875 -24.25 32.375 C-24.31960937 33.87160156 -24.31960937 33.87160156 -24.390625 35.3984375 C-25 38 -25 38 -27.046875 39.3515625 C-27.69140625 39.56554687 -28.3359375 39.77953125 -29 40 C-29.94147716 37.17556852 -30.26009445 34.94741101 -30.5 32 C-30.5825 31.030625 -30.665 30.06125 -30.75 29.0625 C-31 26 -31 26 -31.25 22.9375 C-31.3325 21.968125 -31.415 20.99875 -31.5 20 C-31.5721875 19.113125 -31.644375 18.22625 -31.71875 17.3125 C-31.94085379 14.84514165 -31.94085379 14.84514165 -33 12 C-32.34 11.01 -31.68 10.02 -31 9 C-28.66752239 8.66073053 -26.33414529 8.32759934 -24 8 C-22.9805881 7.01979625 -21.97753644 6.02196992 -21 5 C-18.4375 4.6875 -18.4375 4.6875 -16 5 C-14 7 -14 7 -13.8046875 10.4765625 C-13.81798507 11.85950968 -13.84183768 13.24238654 -13.875 14.625 C-13.88402344 15.33140625 -13.89304688 16.0378125 -13.90234375 16.765625 C-13.92592397 18.51056098 -13.96179539 20.25532295 -14 22 C-14.66 22.33 -15.32 22.66 -16 23 C-13.02819057 24.89865603 -10.48539917 26.35455571 -7 27 C-7 27.66 -7 28.32 -7 29 C-5.68 29 -4.36 29 -3 29 C-2.34 26.03 -1.68 23.06 -1 20 C-1.61875 20.66 -2.2375 21.32 -2.875 22 C-5 24 -5 24 -7 24 C-12.02833576 18.66691662 -12.09938392 14.06918415 -12.23046875 7.0859375 C-12 5 -12 5 -10 2 C-8.68 2.33 -7.36 2.66 -6 3 C-6 6.96 -6 10.92 -6 15 C-3.48244097 12.48244097 -3.51288733 10.98030686 -3 7.5 C-2.22222222 2.22222222 -2.22222222 2.22222222 0 0 Z M-21 11 C-23.60759567 15.84468739 -23.60759567 15.84468739 -23 21 C-19.64377102 16.4947161 -19.64377102 16.4947161 -19 11 C-19.66 11 -20.32 11 -21 11 Z M-1 17 C0 19 0 19 0 19 Z " fill="#357955" transform="translate(213,341)"/>
<path d="M0 0 C3 1 3 1 4.2265625 2.79296875 C5.78770805 7.24775276 3.93840742 11.90145177 2.07421875 16.0703125 C0.3540639 19.24496123 -0.96298353 20.97532235 -4 23 C-5.00168531 24.94832935 -5.00168531 24.94832935 -5.6875 27.125 C-5.93886719 27.84945313 -6.19023437 28.57390625 -6.44921875 29.3203125 C-6.63097656 29.87460937 -6.81273437 30.42890625 -7 31 C-8.32 30.67 -9.64 30.34 -11 30 C-11 29.01 -11 28.02 -11 27 C-14.98388054 26.16616454 -18.08840415 25.73137432 -22 27 C-22.7425 27.804375 -22.7425 27.804375 -23.5 28.625 C-23.995 29.07875 -24.49 29.5325 -25 30 C-27.5625 29.875 -27.5625 29.875 -30 29 C-32.29633824 25.55549263 -32.54016485 23.06187717 -33 19 C-32.34 19 -31.68 19 -31 19 C-30.938125 18.29875 -30.87625 17.5975 -30.8125 16.875 C-29.6997407 12.93754402 -27.91191605 10.84720681 -25 8 C-21.875 7 -21.875 7 -19 7 C-16 9 -16 9 -15.5234375 10.91015625 C-15.47445312 11.62042969 -15.42546875 12.33070313 -15.375 13.0625 C-15.44379184 16.76850197 -15.44379184 16.76850197 -14 18 C-12.67321483 15.34642965 -12.40467993 12.8026609 -11.9375 9.875 C-11.76089844 8.77929688 -11.58429688 7.68359375 -11.40234375 6.5546875 C-11.26957031 5.71164062 -11.13679688 4.86859375 -11 4 C-10.01 3.67 -9.02 3.34 -8 3 C-8 3.99 -8 4.98 -8 6 C-7.236875 5.34 -6.47375 4.68 -5.6875 4 C-3 2 -3 2 0 2 C0 1.34 0 0.68 0 0 Z M-4.0625 8.625 C-6.492724 11.60398425 -6.34049828 13.25451893 -6 17 C-2.96154763 16.32465483 -2.96154763 16.32465483 -1.8125 14.25 C-0.89180904 11.70039426 -0.85051282 9.69076919 -1 7 C-2.30670871 6.89685463 -2.30670871 6.89685463 -4.0625 8.625 Z M-23 13 C-25.41406917 15.51063194 -25.98333433 16.71112844 -26.1875 20.25 C-26.0946875 21.61125 -26.0946875 21.61125 -26 23 C-25.01 22.67 -24.02 22.34 -23 22 C-23 21.01 -23 20.02 -23 19 C-22.34 18.01 -21.68 17.02 -21 16 C-21.33 15.01 -21.66 14.02 -22 13 C-22.33 13 -22.66 13 -23 13 Z M-12 23 C-12.33 23.66 -12.66 24.32 -13 25 C-12.34 25 -11.68 25 -11 25 C-11.33 24.34 -11.66 23.68 -12 23 Z " fill="#3C7D5A" transform="translate(176,351)"/>
<path d="M0 0 C0.08333357 4.8333472 -0.04738513 9.23692563 -1 14 C-1.66 14 -2.32 14 -3 14 C-3.33 16.64 -3.66 19.28 -4 22 C-4.66 22 -5.32 22 -6 22 C-6 22.66 -6 23.32 -6 24 C-9.26954202 23.43628586 -10.82575883 22.50037734 -13 20 C-13.5775 20.94875 -14.155 21.8975 -14.75 22.875 C-17.75223881 27.04477612 -17.75223881 27.04477612 -21 28 C-24.0625 28.4375 -24.0625 28.4375 -27 28 C-29.71825856 25.1005242 -29.99216621 23.08094914 -30.375 19.125 C-30.19226641 14.92212745 -29.09328394 11.68129245 -27 8 C-24.5625 5.9375 -24.5625 5.9375 -22 5 C-19.6875 5.8125 -19.6875 5.8125 -18 7 C-17.34 6.01 -16.68 5.02 -16 4 C-14.68 4.66 -13.36 5.32 -12 6 C-12 6.66 -12 7.32 -12 8 C-10.68 8 -9.36 8 -8 8 C-8.33 8.66 -8.66 9.32 -9 10 C-9.66 9.67 -10.32 9.34 -11 9 C-10.01 10.32 -9.02 11.64 -8 13 C-7.81824219 12.31292969 -7.63648438 11.62585938 -7.44921875 10.91796875 C-7.19785156 10.01691406 -6.94648438 9.11585938 -6.6875 8.1875 C-6.44386719 7.29417969 -6.20023438 6.40085937 -5.94921875 5.48046875 C-4.74896806 2.34401119 -3.5816994 0 0 0 Z M-17 9 C-16 13 -16 13 -16 13 Z M-24 13 C-23 15 -23 15 -23 15 Z M-18 14 C-18 15.32 -18 16.64 -18 18 C-17.67 16.68 -17.34 15.36 -17 14 C-17.33 14 -17.66 14 -18 14 Z M-21 17 C-21.33 18.65 -21.66 20.3 -22 22 C-21.01 21.01 -20.02 20.02 -19 19 C-19.66 18.34 -20.32 17.68 -21 17 Z " fill="#458563" transform="translate(257,327)"/>
<path d="M0 0 C0.99 0.33 1.98 0.66 3 1 C2.34 1 1.68 1 1 1 C0.91885894 2.77007714 0.86074495 4.54122098 0.8125 6.3125 C0.77769531 7.29863281 0.74289062 8.28476562 0.70703125 9.30078125 C1.04428005 12.40796684 1.6958902 13.034552 4 15 C4 15.66 4 16.32 4 17 C4.66 17 5.32 17 6 17 C6 14.36 6 11.72 6 9 C6.33 9 6.66 9 7 9 C8.125 15.75 8.125 15.75 7 18 C4.66666667 18 2.33333333 18 0 18 C-0.433125 18.61875 -0.86625 19.2375 -1.3125 19.875 C-3.8842927 23.11355377 -6.58290535 23.75805701 -10.5625 24.4375 C-13 24 -13 24 -15.3125 22.1875 C-17.79570064 17.4970099 -17.7821632 13.20138529 -17 8 C-14.99690489 4.49458355 -12.90584356 2.22057611 -9 1 C-6.75 1.375 -6.75 1.375 -5 2 C-3.43340381 7.78435518 -3.43340381 7.78435518 -5.046875 11.24609375 C-6.30048084 13.22157935 -7.59564049 15.12914044 -9 17 C-5.10761016 14.95047828 -5.10761016 14.95047828 -2 12 C-1.29910085 9.04950836 -1.1269909 6.35637113 -1.0703125 3.328125 C-1 1 -1 1 0 0 Z M-10 8 C-10 11 -10 11 -10 11 Z " fill="#387B57" transform="translate(275,322)"/>
<path d="M0 0 C2.31459868 1.81817001 2.95377187 2.75615543 3.51171875 5.69921875 C3.59873047 7.17841797 3.59873047 7.17841797 3.6875 8.6875 C3.75324219 9.68136719 3.81898438 10.67523438 3.88671875 11.69921875 C3.92410156 12.45847656 3.96148437 13.21773438 4 14 C4.99 12.68 5.98 11.36 7 10 C11.875 10.875 11.875 10.875 13 12 C14.51076686 17.49463836 15.47721433 22.38658553 14 28 C12.125 27.375 12.125 27.375 10 26 C8.75 22.875 8.75 22.875 8 20 C5.74276161 22.00420082 5.74276161 22.00420082 4.5625 25.4375 C3.24338879 28.44507356 2.48004118 29.99234762 0 32 C-2.39112209 28.41331687 -2.23381027 26.83603431 -2.1953125 22.58203125 C-2.18886719 21.32841797 -2.18242188 20.07480469 -2.17578125 18.78320312 C-2.15902344 17.47287109 -2.14226562 16.16253906 -2.125 14.8125 C-2.11496639 13.47722013 -2.1058412 12.14193311 -2.09765625 10.80664062 C-2.07405292 7.53757985 -2.04112594 4.26887972 -2 1 C-1.34 0.67 -0.68 0.34 0 0 Z " fill="#317651" transform="translate(129,355)"/>
<path d="M0 0 C3 1 3 1 4.2265625 2.79296875 C5.78719097 7.24627725 3.91182585 11.83077046 2.14453125 16.03515625 C0.02900753 20.10214266 -2.16622658 21.72045905 -6 24 C-6.88658466 26.59122743 -6.88658466 26.59122743 -7 29 C-7.99 29 -8.98 29 -10 29 C-10.19586184 26.1253509 -10.38193799 23.25061717 -10.5625 20.375 C-10.61857422 19.56675781 -10.67464844 18.75851562 -10.73242188 17.92578125 C-11.00604422 13.43837484 -10.96801881 9.43137501 -10 5 C-8.68 5 -7.36 5 -6 5 C-4.97980427 4.0206121 -3.97850195 3.02104551 -3 2 C-2.01 2 -1.02 2 0 2 C0 1.34 0 0.68 0 0 Z M-4.0625 8.625 C-6.492724 11.60398425 -6.34049828 13.25451893 -6 17 C-2.96154763 16.32465483 -2.96154763 16.32465483 -1.8125 14.25 C-0.89180904 11.70039426 -0.85051282 9.69076919 -1 7 C-2.30670871 6.89685463 -2.30670871 6.89685463 -4.0625 8.625 Z " fill="#276F48" transform="translate(176,351)"/>
<path d="M0 0 C0.04898437 0.98742187 0.09796875 1.97484375 0.1484375 2.9921875 C0.22320312 4.27351563 0.29796875 5.55484375 0.375 6.875 C0.44460938 8.15117187 0.51421875 9.42734375 0.5859375 10.7421875 C0.67241106 14.08061699 0.67241106 14.08061699 3 16 C2.34 16.99 1.68 17.98 1 19 C-0.98 18.34 -2.96 17.68 -5 17 C-4.67 16.01 -4.34 15.02 -4 14 C-4.09268505 11.93381251 -4.09268505 11.93381251 -4.4375 9.8125 C-4.623125 8.554375 -4.80875 7.29625 -5 6 C-8.78034623 9.47736026 -8.78034623 9.47736026 -11 14 C-11.66 14 -12.32 14 -13 14 C-13 16.64 -13 19.28 -13 22 C-13.66 22 -14.32 22 -15 22 C-15.1546875 21.0409375 -15.1546875 21.0409375 -15.3125 20.0625 C-15.539375 19.381875 -15.76625 18.70125 -16 18 C-16.99 17.67 -17.98 17.34 -19 17 C-18.67 13.37 -18.34 9.74 -18 6 C-16.68 6 -15.36 6 -14 6 C-13.21625 5.21625 -12.4325 4.4325 -11.625 3.625 C-8.01352392 0.01352392 -4.9757908 -1.65859693 0 0 Z " fill="#448462" transform="translate(294,317)"/>
<path d="M0 0 C1.32 0.66 2.64 1.32 4 2 C4 2.66 4 3.32 4 4 C5.32 4 6.64 4 8 4 C7.67 4.66 7.34 5.32 7 6 C6.34 5.67 5.68 5.34 5 5 C4.67 5.66 4.34 6.32 4 7 C3.01 5.68 2.02 4.36 1 3 C0.3185177 4.89179203 0.3185177 4.89179203 0 7 C0.66 7.66 1.32 8.32 2 9 C2 9.99 2 10.98 2 12 C1.34 12 0.68 12 0 12 C-0.2475 12.763125 -0.495 13.52625 -0.75 14.3125 C-2.1292637 17.27791695 -3.19257315 18.38360273 -6 20 C-6.99 20 -7.98 20 -9 20 C-8.67 18.35 -8.34 16.7 -8 15 C-8.66 14.67 -9.32 14.34 -10 14 C-9.67 11.69 -9.34 9.38 -9 7 C-9.66 7 -10.32 7 -11 7 C-11 6.01 -11 5.02 -11 4 C-8.75 2.1875 -8.75 2.1875 -6 1 C-3.6875 1.8125 -3.6875 1.8125 -2 3 C-1.34 2.01 -0.68 1.02 0 0 Z M-8 9 C-7 11 -7 11 -7 11 Z M-2 10 C-2 11.32 -2 12.64 -2 14 C-1.67 12.68 -1.34 11.36 -1 10 C-1.33 10 -1.66 10 -2 10 Z M-5 13 C-5.33 14.65 -5.66 16.3 -6 18 C-5.01 17.01 -4.02 16.02 -3 15 C-3.66 14.34 -4.32 13.68 -5 13 Z " fill="#599374" transform="translate(241,331)"/>
<path d="M0 0 C3.21375783 2.77722867 3.50421903 5.02519117 3.84277344 9.23925781 C3.8946582 10.15030273 3.94654297 11.06134766 4 12 C4.05961914 13.03737305 4.11923828 14.07474609 4.18066406 15.14355469 C4.93156655 30.13156824 5.3423869 45.03984378 4 60 C3.93651367 60.74169434 3.87302734 61.48338867 3.80761719 62.24755859 C3.61363817 64.17410348 3.31525568 66.08955059 3 68 C2.01 68.495 2.01 68.495 1 69 C1.00222061 68.32729568 1.00444122 67.65459137 1.00672913 66.96150208 C1.02900519 59.90378353 1.04399889 52.84607511 1.05493164 45.78833008 C1.05993292 43.1610473 1.06673607 40.53376726 1.07543945 37.90649414 C1.0876905 34.11083292 1.09327053 30.31520877 1.09765625 26.51953125 C1.10281754 25.36169632 1.10797882 24.20386139 1.11329651 23.01094055 C1.11381663 15.29714446 0.69834494 7.68169536 0 0 Z " fill="#367D56" transform="translate(351,71)"/>
<path d="M0 0 C0.99 0 1.98 0 3 0 C3 2.31 3 4.62 3 7 C3.66 7 4.32 7 5 7 C4.34 8.98 3.68 10.96 3 13 C7.67113881 11.02774139 9.60363438 9.4332764 12 5 C12.66 5 13.32 5 14 5 C14.46009282 8.95679828 14.33274372 10.54625856 11.9375 13.8125 C8.41855613 16.43299011 6.38584825 17.15948539 2 17 C-0.62124975 14.91644251 -1.78573155 13.37240296 -2.30859375 10.0234375 C-2.42934045 6.23057046 -2.12261364 3.18392046 0 0 Z " fill="#377955" transform="translate(229,338)"/>
<path d="M0 0 C0.99 0 1.98 0 3 0 C3.05404449 2.75026417 3.09369306 5.49946203 3.125 8.25 C3.15013672 9.41595703 3.15013672 9.41595703 3.17578125 10.60546875 C3.23817168 17.90514882 3.23817168 17.90514882 1 21 C-2.06016687 23.46513442 -3.35162293 24.06116765 -7.3125 23.6875 C-8.199375 23.460625 -9.08625 23.23375 -10 23 C-10.66 21.02 -11.32 19.04 -12 17 C-8.67576157 15.89192052 -7.32809422 16.23197826 -4 17 C-3.34 17 -2.68 17 -2 17 C-0.85491973 12.70594898 -0.95686271 8.61078581 -1.0625 4.20703125 C-1 2 -1 2 0 0 Z " fill="#347451" transform="translate(302,323)"/>
<path d="M0 0 C0.66 0 1.32 0 2 0 C2 3.3 2 6.6 2 10 C2.66 10 3.32 10 4 10 C4.33 8.68 4.66 7.36 5 6 C4.8114611 14.02147338 4.8114611 14.02147338 1.875 17.5625 C-1.71090121 19.35545061 -4.03375457 19.43268132 -8 19 C-10.1875 18.125 -10.1875 18.125 -12 17 C-12.7425 16.62875 -13.485 16.2575 -14.25 15.875 C-15.11625 15.441875 -15.11625 15.441875 -16 15 C-16 14.34 -16 13.68 -16 13 C-13.525 13.495 -13.525 13.495 -11 14 C-10.67 13.01 -10.34 12.02 -10 11 C-8.68 11.33 -7.36 11.66 -6 12 C-6 12.66 -6 13.32 -6 14 C-4.68 14 -3.36 14 -2 14 C-1.66179834 12.4176994 -1.32964061 10.83410625 -1 9.25 C-0.7215625 7.92742187 -0.7215625 7.92742187 -0.4375 6.578125 C0.11153675 3.77856035 0.11153675 3.77856035 0 0 Z " fill="#468463" transform="translate(212,356)"/>
<path d="M0 0 C1.32 0.33 2.64 0.66 4 1 C4 4.96 4 8.92 4 13 C4.66 13 5.32 13 6 13 C6.33 13.99 6.66 14.98 7 16 C7.66 16.33 8.32 16.66 9 17 C7.71937515 18.7074998 6.38232443 20.37373596 5 22 C4.34 22 3.68 22 3 22 C-2.02833576 16.66691662 -2.09938392 12.06918415 -2.23046875 5.0859375 C-2 3 -2 3 0 0 Z " fill="#337853" transform="translate(203,343)"/>
<path d="M0 0 C0.99 0.33 1.98 0.66 3 1 C2.34 1 1.68 1 1 1 C0.91885894 2.77007714 0.86074495 4.54122098 0.8125 6.3125 C0.77769531 7.29863281 0.74289062 8.28476562 0.70703125 9.30078125 C1.04428005 12.40796684 1.6958902 13.034552 4 15 C4 15.66 4 16.32 4 17 C4.66 17 5.32 17 6 17 C6 14.36 6 11.72 6 9 C6.33 9 6.66 9 7 9 C8.125 15.75 8.125 15.75 7 18 C4.66666667 18 2.33333333 18 0 18 C-0.45375 18.66 -0.9075 19.32 -1.375 20 C-1.91125 20.66 -2.4475 21.32 -3 22 C-4.32 22 -5.64 22 -7 22 C-7 21.01 -7 20.02 -7 19 C-8.32 19 -9.64 19 -11 19 C-10.625 17.0625 -10.625 17.0625 -10 15 C-9.34 14.67 -8.68 14.34 -8 14 C-8 14.99 -8 15.98 -8 17 C-7.3503125 16.319375 -7.3503125 16.319375 -6.6875 15.625 C-5 14 -5 14 -2 12 C-1.45368617 9.37654883 -1.45368617 9.37654883 -1.375 6.4375 C-1.08253095 1.08253095 -1.08253095 1.08253095 0 0 Z " fill="#4A8767" transform="translate(275,322)"/>
<path d="M0 0 C0.66 0.33 1.32 0.66 2 1 C2.0270491 4.06255961 2.04686298 7.1248786 2.0625 10.1875 C2.07087891 11.05181641 2.07925781 11.91613281 2.08789062 12.80664062 C2.10414791 17.04979277 1.87031591 20.83659687 1 25 C1.33 25.99 1.66 26.98 2 28 C0.68 28.33 -0.64 28.66 -2 29 C-2 19.76 -2 10.52 -2 1 C-1.34 0.67 -0.68 0.34 0 0 Z " fill="#377A56" transform="translate(129,355)"/>
<path d="M0 0 C1.32 0.33 2.64 0.66 4 1 C5.2869855 8.43463944 6.12161482 15.4598813 6 23 C6.33 23.99 6.66 24.98 7 26 C7.99 26 8.98 26 10 26 C9.67 27.98 9.34 29.96 9 32 C8.01 32 7.02 32 6 32 C3.68822069 24.44818759 3.3876613 16.83483894 3 9 C2.34 9 1.68 9 1 9 C0.67 10.65 0.34 12.3 0 14 C-0.99 13.67 -1.98 13.34 -3 13 C-2.34 13 -1.68 13 -1 13 C-1.01160156 12.22914063 -1.02320313 11.45828125 -1.03515625 10.6640625 C-1.04417969 9.66117187 -1.05320312 8.65828125 -1.0625 7.625 C-1.07410156 6.62726563 -1.08570313 5.62953125 -1.09765625 4.6015625 C-1 2 -1 2 0 0 Z " fill="#5B9275" transform="translate(330,293)"/>
<path d="M0 0 C2.97 0.495 2.97 0.495 6 1 C5.65352097 6.89014345 4.33933806 9.09459574 0 13 C-0.33 13.99 -0.66 14.98 -1 16 C0.98 15.67 2.96 15.34 5 15 C4.34 16.32 3.68 17.64 3 19 C1.00045254 19.04254356 -1.00041636 19.04080783 -3 19 C-4 18 -4 18 -4.09765625 16.15234375 C-4.06510417 14.1015625 -4.03255208 12.05078125 -4 10 C-3.01 9.67 -2.02 9.34 -1 9 C0.01754868 7.1346755 0.01754868 7.1346755 0.6875 4.9375 C0.93886719 4.20402344 1.19023437 3.47054688 1.44921875 2.71484375 C1.63097656 2.14894531 1.81273437 1.58304687 2 1 C1.34 0.67 0.68 0.34 0 0 Z " fill="#2B724D" transform="translate(265,325)"/>
<path d="M0 0 C0.66 0 1.32 0 2 0 C2.99 6.93 3.98 13.86 5 21 C4.34 21 3.68 21 3 21 C2.67 19.68 2.34 18.36 2 17 C0.68 16.67 -0.64 16.34 -2 16 C-1.67 13.36 -1.34 10.72 -1 8 C-2.98 8 -4.96 8 -7 8 C-6.67 7.01 -6.34 6.02 -6 5 C-4.35 4.67 -2.7 4.34 -1 4 C-0.67 2.68 -0.34 1.36 0 0 Z " fill="#2B724D" transform="translate(331,302)"/>
<path d="M0 0 C0.33 0 0.66 0 1 0 C1.33 3.63 1.66 7.26 2 11 C2.66 10.67 3.32 10.34 4 10 C4.33 10.99 4.66 11.98 5 13 C5.66 13 6.32 13 7 13 C6.42655063 15.86724686 6.1385485 16.8614515 4 19 C3.525625 20.134375 3.05125 21.26875 2.5625 22.4375 C1.24338879 25.44507356 0.48004118 26.99234762 -2 29 C-2.33 28.01 -2.66 27.02 -3 26 C-2.34 25.34 -1.68 24.68 -1 24 C-1.29299023 22.32577014 -1.62690101 20.65821773 -2 19 C-1.67 18.34 -1.34 17.68 -1 17 C-0.76725791 14.12089412 -0.58027243 11.25853505 -0.4375 8.375 C-0.39431641 7.57320313 -0.35113281 6.77140625 -0.30664062 5.9453125 C-0.20048543 3.9637489 -0.09973145 1.98189729 0 0 Z " fill="#438362" transform="translate(131,358)"/>
<path d="M0 0 C0.33 0.66 0.66 1.32 1 2 C0.34 2 -0.32 2 -1 2 C-1.33 3.65 -1.66 5.3 -2 7 C-2.99 6.67 -3.98 6.34 -5 6 C-4.67 6.66 -4.34 7.32 -4 8 C-3.62542985 15.06174904 -4.06696191 22.00221432 -5 29 C-5.33 29 -5.66 29 -6 29 C-6.05534912 28.34926514 -6.11069824 27.69853027 -6.16772461 27.02807617 C-6.42053693 24.08087901 -6.67895326 21.1341994 -6.9375 18.1875 C-7.06801758 16.65125977 -7.06801758 16.65125977 -7.20117188 15.08398438 C-7.28818359 14.10107422 -7.37519531 13.11816406 -7.46484375 12.10546875 C-7.543396 11.19949951 -7.62194824 10.29353027 -7.70288086 9.36010742 C-7.94046098 6.85319251 -7.94046098 6.85319251 -9 4 C-8.34 3.01 -7.68 2.02 -7 1 C-3.375 0.3125 -3.375 0.3125 0 0 Z " fill="#4A8867" transform="translate(189,349)"/>
<path d="M0 0 C0.60864258 1.78540039 0.60864258 1.78540039 1 4 C-0.33528608 6.63756509 -1.69715805 8.98091925 -3.3125 11.4375 C-3.76093262 12.13746094 -4.20936523 12.83742187 -4.67138672 13.55859375 C-9.07557357 20.328134 -13.93953978 26.712109 -19 33 C-19.99 32.67 -20.98 32.34 -22 32 C-21.29875 31.14019531 -20.5975 30.28039062 -19.875 29.39453125 C-13.5770264 21.58107991 -8.05666224 13.67026757 -3 5 C-2.00166884 3.33233317 -1.00224588 1.66531708 0 0 Z " fill="#357C55" transform="translate(327,216)"/>
<path d="M0 0 C3 1 3 1 4.25 2.625 C5.30061312 5.95194155 4.64998375 8.62008449 4 12 C3.67 12 3.34 12 3 12 C2.67 9.36 2.34 6.72 2 4 C1.01 4.495 1.01 4.495 0 5 C0 6.98 0 8.96 0 11 C-0.66 10.01 -1.32 9.02 -2 8 C-2.99 8.33 -3.98 8.66 -5 9 C-5 12.3 -5 15.6 -5 19 C-5.66 19.33 -6.32 19.66 -7 20 C-7.30325122 17.7541395 -7.56652522 15.5028531 -7.8125 13.25 C-8.03873047 11.37054688 -8.03873047 11.37054688 -8.26953125 9.453125 C-8 6 -8 6 -5.69921875 3.546875 C-3 2 -3 2 0 2 C0 1.34 0 0.68 0 0 Z " fill="#498866" transform="translate(176,351)"/>
<path d="M0 0 C7.79226189 3.44657737 10.90341615 11.49275633 14.375 18.8125 C14.73303711 19.5660376 15.09107422 20.3195752 15.45996094 21.09594727 C18 26.61154916 18 26.61154916 18 30 C17.34 30 16.68 30 16 30 C13.78029422 25.71913886 11.79224842 21.52538856 10.125 17 C8.45356398 12.6887563 6.29376072 9.35250657 3.3671875 5.7890625 C1.95766485 3.94460144 0.97253546 2.10252904 0 0 Z " fill="#377D57" transform="translate(91,49)"/>
<path d="M0 0 C0.886875 0.4125 1.77375 0.825 2.6875 1.25 C2.6875 1.58 2.6875 1.91 2.6875 2.25 C1.78 2.53875 0.8725 2.8275 -0.0625 3.125 C-3.50416475 4.23747068 -3.50416475 4.23747068 -7.3125 6.25 C-7.3125 11.53 -7.3125 16.81 -7.3125 22.25 C-10.94218776 18.62031224 -11.14941922 17.30550424 -11.3125 12.25 C-10.43451387 7.60137701 -9.09847095 4.1634257 -6 0.5625 C-3.3125 -0.75 -3.3125 -0.75 0 0 Z " fill="#387B56" transform="translate(87.3125,46.75)"/>
<path d="M0 0 C0.99 0 1.98 0 3 0 C4.20272819 2.40545638 4.10071472 3.94996953 4.0625 6.625 C4.05347656 7.44226563 4.04445313 8.25953125 4.03515625 9.1015625 C4.02355469 9.72804688 4.01195312 10.35453125 4 11 C3.01 10.34 2.02 9.68 1 9 C0.67 12.3 0.34 15.6 0 19 C-1.65 18.67 -3.3 18.34 -5 18 C-5.33 15.03 -5.66 12.06 -6 9 C-5.34 9.66 -4.68 10.32 -4 11 C-4.33 11.66 -4.66 12.32 -5 13 C-4.34 13 -3.68 13 -3 13 C-1.4523445 9.90468901 -1.55590549 6.6333237 -1.28125 3.21484375 C-1 1 -1 1 0 0 Z M-4 15 C-3 17 -3 17 -3 17 Z " fill="#528A6C" transform="translate(358,294)"/>
<path d="M0 0 C3.39792658 0.59289664 6.37384601 1.4483114 9.5390625 2.8125 C10.78042969 3.34230469 10.78042969 3.34230469 12.046875 3.8828125 C12.89765625 4.25148438 13.7484375 4.62015625 14.625 5 C16.32512696 5.73008455 18.02563213 6.45928918 19.7265625 7.1875 C20.47502441 7.51105469 21.22348633 7.83460938 21.99462891 8.16796875 C23.63568955 8.84884709 25.31447105 9.43815702 27 10 C27 10.66 27 11.32 27 12 C27.66 12.33 28.32 12.66 29 13 C22.2903992 11.69460388 16.28336783 9.73366651 10 7.0625 C9.14277344 6.71509766 8.28554687 6.36769531 7.40234375 6.00976562 C6.58894531 5.66751953 5.77554688 5.32527344 4.9375 4.97265625 C4.20402344 4.66593994 3.47054687 4.35922363 2.71484375 4.04321289 C1 3 1 3 0 0 Z " fill="#37815B" transform="translate(83,269)"/>
<path d="M0 0 C1.65 0.33 3.3 0.66 5 1 C5.50604984 7.98629919 5.0333905 12.20200116 1 18 C-1.52845528 16.73577236 -1.76422764 15.47154472 -3 13 C-2.34 13 -1.68 13 -1 13 C0.80098121 9.17291493 1.28143104 6.22146566 1 2 C0.67 1.34 0.34 0.68 0 0 Z " fill="#418360" transform="translate(174,354)"/>
<path d="M0 0 C0.99 0.33 1.98 0.66 3 1 C-3.76657623 7.99212877 -10.92206631 14.55617512 -19 20 C-19.66 19.67 -20.32 19.34 -21 19 C-16.83320289 14.71242616 -12.38604627 11.00459871 -7.71875 7.28125 C-4.98499008 4.98740547 -2.48596858 2.55802564 0 0 Z " fill="#378058" transform="translate(278,239)"/>
<path d="M0 0 C2.40870498 1.78034716 2.98315903 2.92957412 3.6875 5.875 C4.30022921 11.5488725 4.07710547 17.30276238 4 23 C3.67 23 3.34 23 3 23 C3 19.04 3 15.08 3 11 C2.01 11 1.02 11 0 11 C0 11.66 0 12.32 0 13 C-0.66 13 -1.32 13 -2 13 C-2.92221976 8.29667924 -3.27536232 5.29790661 -1 1 C-0.67 0.67 -0.34 0.34 0 0 Z " fill="#40815E" transform="translate(302,312)"/>
<path d="M0 0 C2.91646086 2.62481477 4.86643416 5.72853238 7 9 C8.20858552 10.4238996 8.20858552 10.4238996 11.75 10.3125 C15.96013667 10.28978344 17.99247339 9.00752661 21 6 C20.875 8.3125 20.875 8.3125 20 11 C16.82020602 13.21846092 14.82531667 14.0168432 10.9375 13.9375 C6.45227078 12.50604387 3.93067595 10.28369097 1.1875 6.5 C0 4 0 4 0 0 Z " fill="#3C7E58" transform="translate(220,60)"/>
<path d="M0 0 C0.66 0 1.32 0 2 0 C1.67 0.99 1.34 1.98 1 3 C-0.19298652 10.62922242 -0.10862695 18.29955617 0 26 C0.99 26 1.98 26 3 26 C3 24.35 3 22.7 3 21 C3.66 20.67 4.32 20.34 5 20 C4.74438677 22.3431213 4.40729228 24.67843403 4 27 C3.34 27.33 2.68 27.66 2 28 C1.01 27.67 0.02 27.34 -1 27 C-1 26.01 -1 25.02 -1 24 C-1.66 24 -2.32 24 -3 24 C-3 23.34 -3 22.68 -3 22 C-2.34 22 -1.68 22 -1 22 C-1.33 20.35 -1.66 18.7 -2 17 C-2.66 17 -3.32 17 -4 17 C-3.52555245 14.35323911 -3.04568672 11.70766636 -2.5625 9.0625 C-2.42779297 8.30775391 -2.29308594 7.55300781 -2.15429688 6.77539062 C-1.11328125 1.11328125 -1.11328125 1.11328125 0 0 Z " fill="#4E8A6A" transform="translate(166,354)"/>
<path d="M0 0 C0.66 0 1.32 0 2 0 C2.66 1.98 3.32 3.96 4 6 C4.66 6 5.32 6 6 6 C5.67 9.3 5.34 12.6 5 16 C4.34 16 3.68 16 3 16 C2.896875 15.360625 2.79375 14.72125 2.6875 14.0625 C2.460625 13.381875 2.23375 12.70125 2 12 C1.01 11.67 0.02 11.34 -1 11 C-0.67 7.37 -0.34 3.74 0 0 Z " fill="#246B46" transform="translate(276,323)"/>
<path d="M0 0 C0.66 0 1.32 0 2 0 C2.33 2.64 2.66 5.28 3 8 C3.66 7.34 4.32 6.68 5 6 C5.33 8.31 5.66 10.62 6 13 C-1.61538462 14.69230769 -1.61538462 14.69230769 -5 13 C-4.67 11.68 -4.34 10.36 -4 9 C-3.34 9 -2.68 9 -2 9 C-1.01 6.69 -0.02 4.38 1 2 C0.34 1.67 -0.32 1.34 -1 1 C-0.67 0.67 -0.34 0.34 0 0 Z " fill="#438361" transform="translate(193,350)"/>
<path d="M0 0 C2.54414039 2.21229599 3.54746847 3.65126671 4 7 C4.07182357 9.67286275 4.04458486 12.32490846 4 15 C5.65 15 7.3 15 9 15 C8.67 15.66 8.34 16.32 8 17 C5.69 16.67 3.38 16.34 1 16 C1.66 14.02 2.32 12.04 3 10 C1.68 10.99 0.36 11.98 -1 13 C-1 12.34 -1 11.68 -1 11 C-1.66 10.67 -2.32 10.34 -3 10 C-2.01 9.01 -1.02 8.02 0 7 C-0.33 6.34 -0.66 5.68 -1 5 C-1.33 4.01 -1.66 3.02 -2 2 C-1.34 1.34 -0.68 0.68 0 0 Z " fill="#498867" transform="translate(154,360)"/>
<path d="M0 0 C0.99 0 1.98 0 3 0 C3.05402274 2.10388569 3.09280256 4.20816714 3.125 6.3125 C3.14820313 7.48425781 3.17140625 8.65601563 3.1953125 9.86328125 C3 13 3 13 1 16 C0.36707617 18.11280345 0.36707617 18.11280345 0 20 C-0.66 19.67 -1.32 19.34 -2 19 C-1.835 18.05125 -1.67 17.1025 -1.5 16.125 C-0.90946607 12.11429041 -0.96337623 8.1822076 -1.0625 4.13671875 C-1 2 -1 2 0 0 Z " fill="#246C45" transform="translate(302,323)"/>
<path d="M0 0 C0.33 0 0.66 0 1 0 C0.95875 0.928125 0.9175 1.85625 0.875 2.8125 C0.72863661 6.15809719 0.72863661 6.15809719 3 9 C3.125 12.1875 3.125 12.1875 3 15 C2.01 15.495 2.01 15.495 1 16 C0.34786708 18.02463255 0.34786708 18.02463255 0 20 C-1.98 20 -3.96 20 -6 20 C-6.33 19.34 -6.66 18.68 -7 18 C-5.02 17.67 -3.04 17.34 -1 17 C-1.01160156 15.94039063 -1.02320313 14.88078125 -1.03515625 13.7890625 C-1.04453476 12.40104342 -1.05363489 11.01302245 -1.0625 9.625 C-1.07087891 8.92632812 -1.07925781 8.22765625 -1.08789062 7.5078125 C-1.11328125 2.2265625 -1.11328125 2.2265625 0 0 Z " fill="#246D46" transform="translate(359,296)"/>
<path d="M0 0 C6.66666667 6.66666667 13.33333333 13.33333333 20 20 C19.01 20.33 18.02 20.66 17 21 C14.91349269 18.94062935 12.83075945 16.87766489 10.75 14.8125 C10.16347656 14.23435547 9.57695313 13.65621094 8.97265625 13.06054688 C2.59419864 6.71792329 2.59419864 6.71792329 0 3 C0 2.01 0 1.02 0 0 Z " fill="#347B54" transform="translate(28,254)"/>
<path d="M0 0 C0.33 1.32 0.66 2.64 1 4 C1.66 4 2.32 4 3 4 C2.67 5.32 2.34 6.64 2 8 C1.01 8 0.02 8 -1 8 C-1 6.68 -1 5.36 -1 4 C-1.66 4 -2.32 4 -3 4 C-3.33 4.99 -3.66 5.98 -4 7 C-4.433125 6.525625 -4.86625 6.05125 -5.3125 5.5625 C-7.02309613 3.76313043 -7.02309613 3.76313043 -10 3 C-6.46873184 -0.69178035 -5.02635024 -1.19045137 0 0 Z " fill="#468362" transform="translate(333,319)"/>
<path d="M0 0 C-1 2 -1 2 -2.6706543 2.68603516 C-3.38133057 2.88503418 -4.09200684 3.0840332 -4.82421875 3.2890625 C-5.60603516 3.50820313 -6.38785156 3.72734375 -7.19335938 3.953125 C-8.01642578 4.17484375 -8.83949219 4.3965625 -9.6875 4.625 C-10.8930957 4.96917969 -10.8930957 4.96917969 -12.12304688 5.3203125 C-16.52466088 6.52958667 -20.39070749 7.28296141 -25 7 C-25.33 6.34 -25.66 5.68 -26 5 C-24.80761719 4.72285156 -23.61523438 4.44570313 -22.38671875 4.16015625 C-20.82029523 3.79434477 -19.25388993 3.42845529 -17.6875 3.0625 C-16.90181641 2.88009766 -16.11613281 2.69769531 -15.30664062 2.50976562 C-14.54931641 2.33251953 -13.79199219 2.15527344 -13.01171875 1.97265625 C-12.31522217 1.81031494 -11.61872559 1.64797363 -10.90112305 1.48071289 C-7.02407973 0.50037408 -4.04746301 -0.08994362 0 0 Z " fill="#40845F" transform="translate(215,280)"/>
<path d="M0 0 C1 2 1 2 0.4375 5.75 C-0.41618783 12.27004081 0.8938549 18.5733884 2 25 C1.67 24.34 1.34 23.68 1 23 C0.34 23 -0.32 23 -1 23 C-2.71931474 16.44511256 -4.03443517 9.78500485 -3 3 C-1.48046875 1.1796875 -1.48046875 1.1796875 0 0 Z " fill="#3A7D58" transform="translate(209,12)"/>
<path d="M0 0 C3 2 3 2 3.73046875 4.6796875 C3.88128906 5.73414063 4.03210938 6.78859375 4.1875 7.875 C4.34605469 8.92429687 4.50460938 9.97359375 4.66796875 11.0546875 C5 14 5 14 5 18 C4.34 18 3.68 18 3 18 C2.67 14.04 2.34 10.08 2 6 C1.01 8.31 0.02 10.62 -1 13 C-1.33 13 -1.66 13 -2 13 C-2.05391993 11.20866022 -2.09275571 9.41686101 -2.125 7.625 C-2.14820313 6.62726563 -2.17140625 5.62953125 -2.1953125 4.6015625 C-2 2 -2 2 0 0 Z " fill="#488565" transform="translate(213,341)"/>
<path d="M0 0 C8.61005413 -1.07200279 8.61005413 -1.07200279 11.9296875 1.48828125 C13.40893153 3.26558191 14.71424479 5.08005473 16 7 C16.66 7.66 17.32 8.32 18 9 C17.67 9.99 17.34 10.98 17 12 C14.94741176 9.94741176 12.89767859 7.89466913 10.875 5.8125 C8.1380099 3.1667429 6.57202121 2.87787063 2.875 2.9375 C0.956875 2.9684375 0.956875 2.9684375 -1 3 C-0.67 2.01 -0.34 1.02 0 0 Z " fill="#397D59" transform="translate(213,7)"/>
<path d="M0 0 C1.91015625 0.63671875 1.91015625 0.63671875 4.0625 1.6875 C4.77535156 2.02136719 5.48820313 2.35523438 6.22265625 2.69921875 C8 4 8 4 8.74609375 6.14453125 C8.82988281 6.75683594 8.91367188 7.36914062 9 8 C4.22423661 7.5317879 0.95523655 6.75668002 -3 4 C-2.67 3.01 -2.34 2.02 -2 1 C-1.34 0.67 -0.68 0.34 0 0 Z " fill="#337553" transform="translate(192,362)"/>
<path d="M0 0 C0.99 0.33 1.98 0.66 3 1 C3.04898437 1.98742187 3.09796875 2.97484375 3.1484375 3.9921875 C3.22320312 5.27351563 3.29796875 6.55484375 3.375 7.875 C3.44460938 9.15117187 3.51421875 10.42734375 3.5859375 11.7421875 C3.67241106 15.08061699 3.67241106 15.08061699 6 17 C5.34 17.99 4.68 18.98 4 20 C2.68 19.34 1.36 18.68 0 18 C0.66 14.37 1.32 10.74 2 7 C1.34 7 0.68 7 0 7 C-0.93423645 3.98968256 -1.04449911 3.13349732 0 0 Z " fill="#327550" transform="translate(291,316)"/>
<path d="M0 0 C4.53149945 2.82378304 8.17284627 5.91706367 11.875 9.75 C12.37257813 10.25660156 12.87015625 10.76320312 13.3828125 11.28515625 C14.59323202 12.51885307 15.79729853 13.75877784 17 15 C16.67 15.99 16.34 16.98 16 18 C13.32529045 15.38308836 10.66165519 12.75518292 8 10.125 C7.236875 9.37863281 6.47375 8.63226563 5.6875 7.86328125 C4.965625 7.14785156 4.24375 6.43242187 3.5 5.6953125 C2.8296875 5.03547363 2.159375 4.37563477 1.46875 3.69580078 C0 2 0 2 0 0 Z " fill="#387E59" transform="translate(39,233)"/>
<path d="M0 0 C0.99 0.33 1.98 0.66 3 1 C3 5.62 3 10.24 3 15 C2.01 15.495 2.01 15.495 1 16 C0.67 14.68 0.34 13.36 0 12 C-0.99 12.33 -1.98 12.66 -3 13 C-3 11.35 -3 9.7 -3 8 C-2.34 8.66 -1.68 9.32 -1 10 C-0.8508625 7.12800968 -0.8508625 7.12800968 -1.625 5 C-2 3 -2 3 0 0 Z " fill="#4F8A6B" transform="translate(345,304)"/>
<path d="M0 0 C4.52812635 0.92322226 7.54945684 3.2199355 11.25 5.875 C11.8996875 6.32230469 12.549375 6.76960938 13.21875 7.23046875 C14.87186052 8.40778906 16.44362957 9.69747608 18 11 C18 11.99 18 12.98 18 14 C15.93278805 12.61076093 13.87139662 11.21397116 11.8125 9.8125 C11.23435547 9.42513672 10.65621094 9.03777344 10.06054688 8.63867188 C6.29076584 6.06158993 3.13435196 3.32323946 0 0 Z " fill="#377F58" transform="translate(60,254)"/>
<path d="M0 0 C2.97 0.495 2.97 0.495 6 1 C6.33 2.65 6.66 4.3 7 6 C6.34 6 5.68 6 5 6 C5 6.66 5 7.32 5 8 C1.125 7.125 1.125 7.125 0 6 C-0.04080783 4.00041636 -0.04254356 1.99954746 0 0 Z " fill="#357954" transform="translate(246,343)"/>
<path d="M0 0 C1.32 0.66 2.64 1.32 4 2 C3.38461538 8.52307692 3.38461538 8.52307692 1.4375 10.9375 C0.963125 11.288125 0.48875 11.63875 0 12 C0 9.69 0 7.38 0 5 C-0.66 5 -1.32 5 -2 5 C-1.34 3.35 -0.68 1.7 0 0 Z " fill="#317853" transform="translate(235,332)"/>
<path d="M0 0 C0.33 0 0.66 0 1 0 C1 1.65 1 3.3 1 5 C2.32 4.34 3.64 3.68 5 3 C5 4.98 5 6.96 5 9 C3.02 9.99 3.02 9.99 1 11 C1 10.34 1 9.68 1 9 C0.34 9 -0.32 9 -1 9 C-1.625 6.1875 -1.625 6.1875 -2 3 C-1.34 2.01 -0.68 1.02 0 0 Z " fill="#2D724C" transform="translate(341,312)"/>
<path d="M0 0 C1.65 0.33 3.3 0.66 5 1 C5 1.66 5 2.32 5 3 C4.34 3.66 3.68 4.32 3 5 C5.31 5.66 7.62 6.32 10 7 C10 7.33 10 7.66 10 8 C2.67605634 8.28169014 2.67605634 8.28169014 -1 6 C-1.7425 5.62875 -2.485 5.2575 -3.25 4.875 C-3.8275 4.58625 -4.405 4.2975 -5 4 C-5 3.34 -5 2.68 -5 2 C-2.525 2.495 -2.525 2.495 0 3 C0 2.01 0 1.02 0 0 Z " fill="#578F71" transform="translate(201,367)"/>
<path d="M0 0 C1.48117801 0.28127421 2.95993249 0.57533732 4.4375 0.875 C5.67306641 1.11863281 5.67306641 1.11863281 6.93359375 1.3671875 C7.61550781 1.57601563 8.29742187 1.78484375 9 2 C9.33 2.66 9.66 3.32 10 4 C8.68 4 7.36 4 6 4 C7.65 4.33 9.3 4.66 11 5 C10.67 5.66 10.34 6.32 10 7 C5.25 6.25 5.25 6.25 3 4 C2.67 4.66 2.34 5.32 2 6 C1.34 6 0.68 6 0 6 C0 4.02 0 2.04 0 0 Z " fill="#40805D" transform="translate(347,311)"/>
<path d="M0 0 C0.99 0.33 1.98 0.66 3 1 C3 3.31 3 5.62 3 8 C2.34 8 1.68 8 1 8 C0.67 9.65 0.34 11.3 0 13 C-0.99 12.67 -1.98 12.34 -3 12 C-2.34 12 -1.68 12 -1 12 C-1.01160156 11.21753906 -1.02320313 10.43507813 -1.03515625 9.62890625 C-1.04417969 8.61699219 -1.05320312 7.60507812 -1.0625 6.5625 C-1.07410156 5.55316406 -1.08570313 4.54382813 -1.09765625 3.50390625 C-1 1 -1 1 0 0 Z " fill="#448764" transform="translate(330,294)"/>
<path d="M0 0 C0.33 0 0.66 0 1 0 C0.56497647 6.52535297 -1.63938913 12.38603155 -5 18 C-5.99 18.33 -6.98 18.66 -8 19 C-6.60121198 14.53202662 -4.86369228 10.36177921 -2.875 6.125 C-2.33617187 4.97257813 -1.79734375 3.82015625 -1.2421875 2.6328125 C-0.62730469 1.32957031 -0.62730469 1.32957031 0 0 Z " fill="#347B54" transform="translate(337,195)"/>
<path d="M0 0 C0.66 0 1.32 0 2 0 C2.48009262 2.06228466 2.95903544 4.12483701 3.4375 6.1875 C3.83775391 7.91033203 3.83775391 7.91033203 4.24609375 9.66796875 C4.87312201 12.43923875 5.45899177 15.21091874 6 18 C2.22038789 15.4802586 1.6340952 13.15951505 0 9 C-0.33 8.34 -0.66 7.68 -1 7 C-0.71758117 4.6599583 -0.38749213 2.32495277 0 0 Z " fill="#367D57" transform="translate(80,70)"/>
<path d="M0 0 C1.4606285 2.64738916 2 3.89448334 2 7 C-0.97 6.67 -3.94 6.34 -7 6 C-7 5.01 -7 4.02 -7 3 C-5.02 3 -3.04 3 -1 3 C-0.67 2.01 -0.34 1.02 0 0 Z " fill="#478463" transform="translate(211,367)"/>
<path d="M0 0 C0.144375 0.598125 0.28875 1.19625 0.4375 1.8125 C0.8872439 3.56150404 1.42892341 5.28677023 2 7 C1.83988879 9.70123106 1.39559392 12.31875231 1 15 C0.01 15 -0.98 15 -2 15 C-2.21755666 9.5610835 -2.10428384 5.12919186 0 0 Z " fill="#216640" transform="translate(186,363)"/>
<path d="M0 0 C2.75924692 2.75924692 3.56721389 5.87058017 4.90234375 9.4921875 C5.99681482 11.99272283 7.27985329 13.89269776 9 16 C8.67 16.66 8.34 17.32 8 18 C7.34 17.67 6.68 17.34 6 17 C6 16.34 6 15.68 6 15 C5.34 15 4.68 15 4 15 C3.32243118 13.44219668 2.65840543 11.87849904 2 10.3125 C1.62875 9.44238281 1.2575 8.57226562 0.875 7.67578125 C-0.01870488 4.9427998 -0.16449676 2.85299066 0 0 Z " fill="#357C55" transform="translate(16,232)"/>
<path d="M0 0 C0.66 0.33 1.32 0.66 2 1 C1.67 1.66 1.34 2.32 1 3 C1.66 3 2.32 3 3 3 C3.33 5.97 3.66 8.94 4 12 C2.35 11.67 0.7 11.34 -1 11 C-0.67 8.69 -0.34 6.38 0 4 C-0.66 4 -1.32 4 -2 4 C-2 3.01 -2 2.02 -2 1 C-1.34 0.67 -0.68 0.34 0 0 Z M1 6 C2 8 2 8 2 8 Z " fill="#4B8B6A" transform="translate(232,334)"/>
<path d="M0 0 C0.33 3.3 0.66 6.6 1 10 C-0.65 9.67 -2.3 9.34 -4 9 C-4 6.36 -4 3.72 -4 1 C-1 0 -1 0 0 0 Z " fill="#256F46" transform="translate(352,302)"/>
<path d="M0 0 C0.99 0.495 0.99 0.495 2 1 C2.59355614 3.64860427 2.74209269 6.29197322 3 9 C4.32 8.34 5.64 7.68 7 7 C7.33 7.66 7.66 8.32 8 9 C7.67 9.99 7.34 10.98 7 12 C5.02 12 3.04 12 1 12 C0.67 8.04 0.34 4.08 0 0 Z " fill="#29714B" transform="translate(157,363)"/>
<path d="M0 0 C3.09465773 4.64198659 3.40657152 8.40964158 3 14 C2.01 14.99 1.02 15.98 0 17 C0 11.39 0 5.78 0 0 Z " fill="#367C55" transform="translate(241,48)"/>
<path d="M0 0 C2 3.75 2 3.75 2 6 C2.99 6 3.98 6 5 6 C4.67 4.35 4.34 2.7 4 1 C4.99 1 5.98 1 7 1 C7.33 1.99 7.66 2.98 8 4 C8.66 4.33 9.32 4.66 10 5 C8.71937515 6.7074998 7.38232443 8.37373596 6 10 C5.34 10 4.68 10 4 10 C1.46093936 7.38626111 0.07743148 5.87110419 -0.25 2.1875 C-0.1675 1.465625 -0.085 0.74375 0 0 Z " fill="#559070" transform="translate(202,355)"/>
<path d="M0 0 C-0.33 0.66 -0.66 1.32 -1 2 C-1.66 2 -2.32 2 -3 2 C-3 3.32 -3 4.64 -3 6 C-3.99 6.495 -3.99 6.495 -5 7 C-5.65213292 9.02463255 -5.65213292 9.02463255 -6 11 C-6.33 11 -6.66 11 -7 11 C-7 8.33333333 -7 5.66666667 -7 3 C-7.99 3.495 -7.99 3.495 -9 4 C-8 1 -8 1 -6.1875 -0.25 C-3.66056586 -1.11637742 -2.47778006 -0.88492145 0 0 Z " fill="#508E6E" transform="translate(270,324)"/>
<path d="M0 0 C3.34708051 1.54841575 6.24667512 3.49105864 9.25 5.625 C10.14203125 6.25664062 11.0340625 6.88828125 11.953125 7.5390625 C12.96632813 8.26222656 12.96632813 8.26222656 14 9 C12.328125 9.73828125 12.328125 9.73828125 10 10 C7.421875 8.41796875 7.421875 8.41796875 4.75 6.1875 C3.85796875 5.45917969 2.9659375 4.73085938 2.046875 3.98046875 C1.37140625 3.32691406 0.6959375 2.67335938 0 2 C0 1.34 0 0.68 0 0 Z " fill="#367D57" transform="translate(49,276)"/>
<path d="M0 0 C0.66 0 1.32 0 2 0 C1.67 1.32 1.34 2.64 1 4 C0.34 4 -0.32 4 -1 4 C-1.66 5.32 -2.32 6.64 -3 8 C-3.66 8 -4.32 8 -5 8 C-5.66 9.32 -6.32 10.64 -7 12 C-7.99 11.67 -8.98 11.34 -10 11 C-8.38150935 9.16053461 -6.75581169 7.32848583 -5.125 5.5 C-4.66480469 4.97535156 -4.20460938 4.45070312 -3.73046875 3.91015625 C-2.52827924 2.56858245 -1.26754054 1.28000815 0 0 Z " fill="#377E55" transform="translate(303,250)"/>
<path d="M0 0 C1.65 1.65 3.3 3.3 5 5 C4.01 5 3.02 5 2 5 C1.97421875 5.77085937 1.9484375 6.54171875 1.921875 7.3359375 C1.86515625 8.33882813 1.8084375 9.34171875 1.75 10.375 C1.70359375 11.37273437 1.6571875 12.37046875 1.609375 13.3984375 C1 16 1 16 -1.046875 17.3515625 C-1.69140625 17.56554687 -2.3359375 17.77953125 -3 18 C-3 17.01 -3 16.02 -3 15 C-2.01 15 -1.02 15 0 15 C-0.020625 13.72125 -0.04125 12.4425 -0.0625 11.125 C-0.125 7.25 -0.125 7.25 1 5 C0.34 4.67 -0.32 4.34 -1 4 C-0.67 2.68 -0.34 1.36 0 0 Z " fill="#4B8667" transform="translate(187,363)"/>
<path d="M0 0 C2.97 0.495 2.97 0.495 6 1 C5.67 3.31 5.34 5.62 5 8 C3.35 8 1.7 8 0 8 C0.66 5.69 1.32 3.38 2 1 C1.34 0.67 0.68 0.34 0 0 Z " fill="#317853" transform="translate(265,325)"/>
<path d="M0 0 C6.27 0.33 12.54 0.66 19 1 C19 1.33 19 1.66 19 2 C12.60624381 3.59843905 6.40654045 3.28130809 0 2 C0 1.34 0 0.68 0 0 Z " fill="#39815C" transform="translate(132,313)"/>
<path d="M0 0 C4.97209562 1.76429199 9.43438061 4.3939166 14 7 C11.40927388 7.97226335 10.30300917 8.11611108 7.67578125 7.109375 C6.89589844 6.66078125 6.11601563 6.2121875 5.3125 5.75 C4.52488281 5.31171875 3.73726563 4.8734375 2.92578125 4.421875 C1 3 1 3 0 0 Z " fill="#377D58" transform="translate(69,290)"/>
<path d="M0 0 C0.66 0 1.32 0 2 0 C2.37851209 5.93002267 1.10575375 10.47239641 -1 16 C-1.33 16 -1.66 16 -2 16 C-2.2396943 10.36718401 -1.38529821 5.45461169 0 0 Z " fill="#347C54" transform="translate(325,149)"/>
<path d="M0 0 C0 0.33 0 0.66 0 1 C-1.11375 1.12375 -2.2275 1.2475 -3.375 1.375 C-7.03103677 1.6465813 -7.03103677 1.6465813 -9 4 C-9.67940467 6.42715206 -9.67940467 6.42715206 -10.125 9.125 C-10.29257812 10.03507812 -10.46015625 10.94515625 -10.6328125 11.8828125 C-10.75398438 12.58148438 -10.87515625 13.28015625 -11 14 C-11.33 14 -11.66 14 -12 14 C-12.10815225 12.23050905 -12.18566083 10.45912513 -12.25 8.6875 C-12.29640625 7.70136719 -12.3428125 6.71523438 -12.390625 5.69921875 C-12 3 -12 3 -10.25 1.15625 C-6.69886606 -0.66863827 -3.94730443 -0.19736522 0 0 Z " fill="#307850" transform="translate(339,45)"/>
<path d="M0 0 C2.77945753 4.1691863 3.25341025 8.52925011 2.75 13.4375 C2.5025 13.953125 2.255 14.46875 2 15 C1.01 15.33 0.02 15.66 -1 16 C-0.67 10.72 -0.34 5.44 0 0 Z " fill="#236C45" transform="translate(214,351)"/>
<path d="M0 0 C0.99 0.33 1.98 0.66 3 1 C-0.96 6.94 -0.96 6.94 -5 13 C-6 9 -6 9 -4.78515625 6.640625 C-4.21667969 5.85171875 -3.64820313 5.0628125 -3.0625 4.25 C-2.49660156 3.45078125 -1.93070312 2.6515625 -1.34765625 1.828125 C-0.90292969 1.22484375 -0.45820313 0.6215625 0 0 Z " fill="#347D54" transform="translate(303,207)"/>
<path d="M0 0 C0.33 0 0.66 0 1 0 C0.15867159 10.16236162 0.15867159 10.16236162 -2 14 C-2.99 14.33 -3.98 14.66 -5 15 C-1.92482916 4.44191344 -1.92482916 4.44191344 0 0 Z " fill="#347C54" transform="translate(343,179)"/>
<path d="M0 0 C1.29257726 3.87773179 0.39023724 4.98929626 -1.3125 8.625 C-1.98732422 10.09839844 -1.98732422 10.09839844 -2.67578125 11.6015625 C-4 14 -4 14 -6 15 C-5.48640535 9.8640535 -3.7815677 3.7815677 0 0 Z " fill="#337C53" transform="translate(317,181)"/>
<path d="M0 0 C2.475 0.495 2.475 0.495 5 1 C5 3.64 5 6.28 5 9 C4.01 9.33 3.02 9.66 2 10 C1.77213542 7.98177083 1.54427083 5.96354167 1.31640625 3.9453125 C1.08707039 1.92595684 1.08707039 1.92595684 0 0 Z " fill="#246D44" transform="translate(174,354)"/>
<path d="M0 0 C1.65 0 3.3 0 5 0 C4.67 2.64 4.34 5.28 4 8 C3.01 8.33 2.02 8.66 1 9 C0.67 6.03 0.34 3.06 0 0 Z " fill="#2D744F" transform="translate(184,355)"/>
<path d="M0 0 C0 0.66 0 1.32 0 2 C-1.98 2 -3.96 2 -6 2 C-6 2.99 -6 3.98 -6 5 C-3.69 5 -1.38 5 1 5 C0.34 5.66 -0.32 6.32 -1 7 C-4.125 6.625 -4.125 6.625 -7 6 C-7.66 4.02 -8.32 2.04 -9 0 C-5.93109813 -1.53445094 -3.29905734 -0.54984289 0 0 Z " fill="#4D8567" transform="translate(299,340)"/>
<path d="M0 0 C0.66 0.33 1.32 0.66 2 1 C1.67 3.64 1.34 6.28 1 9 C0.67 8.34 0.34 7.68 0 7 C-0.66 7 -1.32 7 -2 7 C-2.66 5.02 -3.32 3.04 -4 1 C-2.68 1.33 -1.36 1.66 0 2 C0 1.34 0 0.68 0 0 Z " fill="#387B59" transform="translate(282,322)"/>
<path d="M0 0 C0.99 0.66 1.98 1.32 3 2 C2.34 3.32 1.68 4.64 1 6 C-0.65 6 -2.3 6 -4 6 C-4.33 4.68 -4.66 3.36 -5 2 C-4.360625 1.855625 -3.72125 1.71125 -3.0625 1.5625 C-1.02454854 1.18992819 -1.02454854 1.18992819 0 0 Z " fill="#337652" transform="translate(326,322)"/>
<path d="M0 0 C1.50433594 0.01353516 1.50433594 0.01353516 3.0390625 0.02734375 C3.80992188 0.03894531 4.58078125 0.05054688 5.375 0.0625 C5.375 0.3925 5.375 0.7225 5.375 1.0625 C2.39648438 1.40429688 2.39648438 1.40429688 -0.58203125 1.74609375 C-2.81896393 2.03420735 -2.81896393 2.03420735 -5.625 3.0625 C-5.955 5.7025 -6.285 8.3425 -6.625 11.0625 C-6.955 11.0625 -7.285 11.0625 -7.625 11.0625 C-7.625 7.7625 -7.625 4.4625 -7.625 1.0625 C-4.98041621 -0.25979189 -2.94738699 -0.03427194 0 0 Z " fill="#2F764E" transform="translate(22.625,219.9375)"/>
<path d="M0 0 C3.63 0 7.26 0 11 0 C10.67 0.99 10.34 1.98 10 3 C2.25 3.125 2.25 3.125 0 2 C0 1.34 0 0.68 0 0 Z " fill="#397D57" transform="translate(99,119)"/>
<path d="M0 0 C5.875 0.875 5.875 0.875 7 2 C7.39569108 4.01311449 7.74252191 6.03597208 8.0625 8.0625 C8.23910156 9.16722656 8.41570312 10.27195312 8.59765625 11.41015625 C8.73042969 12.26480469 8.86320313 13.11945313 9 14 C8.34 14 7.68 14 7 14 C6.82984375 13.24074219 6.6596875 12.48148437 6.484375 11.69921875 C6.24203125 10.70535156 5.9996875 9.71148437 5.75 8.6875 C5.51796875 7.70136719 5.2859375 6.71523438 5.046875 5.69921875 C3.86650557 2.65580355 2.75177354 1.66584638 0 0 Z " fill="#508E6D" transform="translate(153,358)"/>
<path d="M0 0 C0.99 0.33 1.98 0.66 3 1 C3.1875 4.3125 3.1875 4.3125 3 8 C2.01 8.99 1.02 9.98 0 11 C0 7.37 0 3.74 0 0 Z " fill="#287148" transform="translate(195,348)"/>
<path d="M0 0 C2.5722047 1.28610235 3.00974907 2.33393981 4 5 C3.625 7.25 3.625 7.25 3 9 C0.9375 7.3125 0.9375 7.3125 -1 5 C-0.75 2.25 -0.75 2.25 0 0 Z " fill="#2A734C" transform="translate(242,333)"/>
<path d="M0 0 C3 1 3 1 5 3 C5.99 2.67 6.98 2.34 8 2 C8 2.66 8 3.32 8 4 C4.71303767 4.79953138 3.28976808 5.09658936 0 4 C-0.33 4.99 -0.66 5.98 -1 7 C-1.625 5.1875 -1.625 5.1875 -2 3 C-1.34 2.01 -0.68 1.02 0 0 Z " fill="#588C70" transform="translate(360,319)"/>
<path d="M0 0 C2.31 0.66 4.62 1.32 7 2 C7 4.64 7 7.28 7 10 C6.67 10 6.34 10 6 10 C5.67 8.02 5.34 6.04 5 4 C4.01 4.33 3.02 4.66 2 5 C-0.1875 3.5625 -0.1875 3.5625 -2 2 C-1.34 1.34 -0.68 0.68 0 0 Z " fill="#4C896A" transform="translate(323,308)"/>
<path d="M0 0 C0 0.66 0 1.32 0 2 C-5.8685408 3.14819277 -11.0885256 2.77313045 -17 2 C-17 1.67 -17 1.34 -17 1 C-11.29014022 0.25983299 -5.75813575 -0.10469338 0 0 Z " fill="#4D906C" transform="translate(190,286)"/>
<path d="M0 0 C3 3 3 3 3.29296875 5.26171875 C3.25816406 6.06222656 3.22335937 6.86273438 3.1875 7.6875 C3.16042969 8.49574219 3.13335937 9.30398437 3.10546875 10.13671875 C3.07066406 10.75160156 3.03585937 11.36648437 3 12 C2.01 12.495 2.01 12.495 1 13 C0.67 8.71 0.34 4.42 0 0 Z " fill="#347B54" transform="translate(351,71)"/>
<path d="M0 0 C3.42484079 3.08235671 5.94607159 6.89214317 8 11 C6.25 10.875 6.25 10.875 4 10 C1.06644827 6.33306034 0 4.76869466 0 0 Z " fill="#337B52" transform="translate(220,60)"/>
<path d="M0 0 C0.66 0 1.32 0 2 0 C1.45276317 3.37462715 0.9451 5.08235 -1 8 C-1.99 8 -2.98 8 -4 8 C-4 7.01 -4 6.02 -4 5 C-3.34 5 -2.68 5 -2 5 C-1.34 3.35 -0.68 1.7 0 0 Z " fill="#2A6E4A" transform="translate(155,370)"/>
<path d="M0 0 C0.66 0 1.32 0 2 0 C2.125 2.875 2.125 2.875 2 6 C1.34 6.66 0.68 7.32 0 8 C0 7.34 0 6.68 0 6 C-1.32 6.99 -2.64 7.98 -4 9 C-3.35494404 5.51669784 -2.01782732 2.90567134 0 0 Z " fill="#2C734C" transform="translate(241,343)"/>
<path d="M0 0 C2.31966166 2.84685749 3.91581154 5.4763875 5 9 C4.67 9.99 4.34 10.98 4 12 C4 11.34 4 10.68 4 10 C3.34 10 2.68 10 2 10 C0.39644899 6.49223216 -0.22036864 3.85645121 0 0 Z " fill="#317851" transform="translate(212,40)"/>
<path d="M0 0 C0.66 0 1.32 0 2 0 C2 1.65 2 3.3 2 5 C2.66 5 3.32 5 4 5 C4 3.35 4 1.7 4 0 C4.66 0.66 5.32 1.32 6 2 C5.625 5.125 5.625 5.125 5 8 C3.0625 7.375 3.0625 7.375 1 6 C0.25 2.875 0.25 2.875 0 0 Z " fill="#54896D" transform="translate(138,375)"/>
<path d="M0 0 C3 3 3 3 3.29296875 5.04296875 C3.1953125 7.02864583 3.09765625 9.01432292 3 11 C2.34 11 1.68 11 1 11 C0.67 7.37 0.34 3.74 0 0 Z " fill="#2A714B" transform="translate(139,369)"/>
<path d="M0 0 C2 2 2 2 2.125 5.625 C2.08375 6.73875 2.0425 7.8525 2 9 C1.67 9 1.34 9 1 9 C0.67 7.02 0.34 5.04 0 3 C-2.31 3 -4.62 3 -7 3 C-7 2.34 -7 1.68 -7 1 C-4.48718205 -0.25640898 -2.78302919 -0.20872719 0 0 Z " fill="#4D8A6B" transform="translate(197,346)"/>
<path d="M0 0 C0.66 0 1.32 0 2 0 C2.1953125 6.0546875 2.1953125 6.0546875 2 8 C1.34 8.66 0.68 9.32 0 10 C-0.33 8.02 -0.66 6.04 -1 4 C-1.99 4.495 -1.99 4.495 -3 5 C-1.125 1.125 -1.125 1.125 0 0 Z " fill="#518C6D" transform="translate(255,327)"/>
<path d="M0 0 C-1 2 -1 2 -4.3125 3.1875 C-7.57562063 3.90649268 -8.99282882 4.20286847 -12 3 C-7.77050005 0.58314288 -4.87664009 -0.34833144 0 0 Z " fill="#358057" transform="translate(215,280)"/>
<path d="M0 0 C3.59905908 0.55550695 4.99909799 1.74887248 7.25 4.5625 C8.03117187 5.52349609 8.03117187 5.52349609 8.828125 6.50390625 C9.21484375 6.99761719 9.6015625 7.49132812 10 8 C6.40094092 7.44449305 5.00090201 6.25112752 2.75 3.4375 C2.22921875 2.79683594 1.7084375 2.15617187 1.171875 1.49609375 C0.78515625 1.00238281 0.3984375 0.50867188 0 0 Z " fill="#3A805B" transform="translate(38,267)"/>
<path d="M0 0 C0 3.58912412 -0.66436554 4.10857029 -3 6.6875 C-3.556875 7.31011719 -4.11375 7.93273437 -4.6875 8.57421875 C-5.120625 9.04472656 -5.55375 9.51523438 -6 10 C-6.33 9.01 -6.66 8.02 -7 7 C-2.88888889 1.44444444 -2.88888889 1.44444444 0 0 Z " fill="#357D55" transform="translate(292,225)"/>
<path d="M0 0 C3 1 3 1 4.6875 4.375 C6 8 6 8 6 11 C5.34 11 4.68 11 4 11 C3.32880451 9.5437455 2.66318193 8.08492133 2 6.625 C1.62875 5.81289063 1.2575 5.00078125 0.875 4.1640625 C0 2 0 2 0 0 Z " fill="#357B54" transform="translate(231,21)"/>
<path d="M0 0 C0 0.66 0 1.32 0 2 C-2.88211302 2.96070434 -4.69850044 3.10581883 -7.6875 3.0625 C-8.89986328 3.04896484 -8.89986328 3.04896484 -10.13671875 3.03515625 C-11.05904297 3.01775391 -11.05904297 3.01775391 -12 3 C-7.87960164 0.25306776 -4.92304458 0 0 0 Z " fill="#367E55" transform="translate(207,310)"/>
<path d="M0 0 C0.66 0.66 1.32 1.32 2 2 C1.34 2 0.68 2 0 2 C0.185625 2.928125 0.37125 3.85625 0.5625 4.8125 C1 8 1 8 0 11 C-0.66 11 -1.32 11 -2 11 C-2.05399736 9.54207116 -2.09279177 8.08357288 -2.125 6.625 C-2.15980469 5.40683594 -2.15980469 5.40683594 -2.1953125 4.1640625 C-2 2 -2 2 0 0 Z " fill="#488162" transform="translate(369,292)"/>
<path d="M0 0 C0.58265625 0.21527344 1.1653125 0.43054688 1.765625 0.65234375 C0.31298462 1.51615665 -1.1466913 2.36814829 -2.609375 3.21484375 C-3.82753906 3.92833984 -3.82753906 3.92833984 -5.0703125 4.65625 C-5.78445312 4.98496094 -6.49859375 5.31367188 -7.234375 5.65234375 C-7.894375 5.32234375 -8.554375 4.99234375 -9.234375 4.65234375 C-8.16330383 3.78285058 -7.07691556 2.9322017 -5.984375 2.08984375 C-5.38109375 1.61417969 -4.7778125 1.13851563 -4.15625 0.6484375 C-2.234375 -0.34765625 -2.234375 -0.34765625 0 0 Z " fill="#317952" transform="translate(244.234375,266.34765625)"/>
<path d="M0 0 C3.78717347 1.48781815 5.77407001 3.61988409 8 7 C7.67 7.99 7.34 8.98 7 10 C5.83043409 8.52312468 4.66441854 7.04343707 3.5 5.5625 C2.8503125 4.73878906 2.200625 3.91507813 1.53125 3.06640625 C0 1 0 1 0 0 Z " fill="#337B55" transform="translate(30,222)"/>
<path d="M0 0 C0.66 0.33 1.32 0.66 2 1 C2 3.31 2 5.62 2 8 C1.01 8 0.02 8 -1 8 C-1.125 2.25 -1.125 2.25 0 0 Z " fill="#236B44" transform="translate(371,311)"/>
<path d="M0 0 C2.50037734 2.17424117 3.43628586 3.73045798 4 7 C3.34 7 2.68 7 2 7 C1.34 7.66 0.68 8.32 0 9 C-0.87890625 2.84765625 -0.87890625 2.84765625 -1 1 C-0.67 0.67 -0.34 0.34 0 0 Z " fill="#4A8768" transform="translate(134,368)"/>
<path d="M0 0 C4.875 0.875 4.875 0.875 6 2 C6.04063832 3.66617115 6.042721 5.33388095 6 7 C1.125 3.125 1.125 3.125 0 2 C0 1.34 0 0.68 0 0 Z " fill="#488664" transform="translate(136,365)"/>
<path d="M0 0 C0.33 0.66 0.66 1.32 1 2 C0.34 2 -0.32 2 -1 2 C-1.33 3.65 -1.66 5.3 -2 7 C-2.99 6.67 -3.98 6.34 -5 6 C-4.67 4.68 -4.34 3.36 -4 2 C-4.99 1.67 -5.98 1.34 -7 1 C-3.535 0.505 -3.535 0.505 0 0 Z " fill="#548F71" transform="translate(189,349)"/>
<path d="M0 0 C0.66 0 1.32 0 2 0 C2 2.97 2 5.94 2 9 C1.01 9.495 1.01 9.495 0 10 C-1.125 2.25 -1.125 2.25 0 0 Z " fill="#236E46" transform="translate(230,338)"/>
<path d="M0 0 C3.3125 -0.25 3.3125 -0.25 7 0 C8.9375 2 8.9375 2 10 4 C8.72125 3.896875 7.4425 3.79375 6.125 3.6875 C5.04605469 3.60048828 5.04605469 3.60048828 3.9453125 3.51171875 C2 3 2 3 0 0 Z " fill="#307951" transform="translate(96,303)"/>
<path d="M0 0 C0.33 0.99 0.66 1.98 1 3 C-2.50776784 4.60355101 -5.14354879 5.22036864 -9 5 C-6.14693203 2.67527795 -3.45925163 1.2491742 0 0 Z " fill="#388158" transform="translate(234,300)"/>
<path d="M0 0 C5.07865169 1.26966292 5.07865169 1.26966292 7 4 C6.67 5.32 6.34 6.64 6 8 C4.02 5.36 2.04 2.72 0 0 Z " fill="#347A54" transform="translate(340,46)"/>
<path d="M0 0 C0.99 0 1.98 0 3 0 C2.25 5.75 2.25 5.75 0 8 C-0.38063221 5.6739143 -0.71269945 3.33944736 -1 1 C-0.67 0.67 -0.34 0.34 0 0 Z " fill="#246E45" transform="translate(147,366)"/>
<path d="M0 0 C2 3 2 3 2 7 C0.35 7.33 -1.3 7.66 -3 8 C-2.37240135 5.07120629 -1.41377341 2.63904371 0 0 Z " fill="#599174" transform="translate(197,356)"/>
<path d="M0 0 C0.33 0.66 0.66 1.32 1 2 C0.22265625 3.7265625 0.22265625 3.7265625 -0.9375 5.625 C-1.618125 6.73875 -2.29875 7.8525 -3 9 C-3.89674777 6.48910624 -4.13172674 5.35464891 -3.1875 2.8125 C-2 1 -2 1 0 0 Z " fill="#337B52" transform="translate(310,197)"/>
<path d="M0 0 C2.95183101 2.95183101 3.08663988 5.95511947 4 10 C3.01 9.67 2.02 9.34 1 9 C0.67 6.03 0.34 3.06 0 0 Z " fill="#357B54" transform="translate(90,101)"/>
<path d="M0 0 C1.98 0.99 1.98 0.99 4 2 C4 2.66 4 3.32 4 4 C2.68 3.34 1.36 2.68 0 2 C0 1.34 0 0.68 0 0 Z M-2 1 C-1.01 1.99 -0.02 2.98 1 4 C0.01 4.33 -0.98 4.66 -2 5 C-2 3.68 -2 2.36 -2 1 Z " fill="#256B47" transform="translate(192,362)"/>
<path d="M0 0 C0.33 0 0.66 0 1 0 C1 2.64 1 5.28 1 8 C0.01 7.67 -0.98 7.34 -2 7 C-2.125 4.625 -2.125 4.625 -2 2 C-1.34 1.34 -0.68 0.68 0 0 Z " fill="#277049" transform="translate(254,330)"/>
<path d="M0 0 C0.33 0 0.66 0 1 0 C1.36923077 7.50769231 1.36923077 7.50769231 -0.5 10 C-0.995 10.33 -1.49 10.66 -2 11 C-1.125 3.375 -1.125 3.375 0 0 Z " fill="#2C764D" transform="translate(349,155)"/>
<path d="M0 0 C2.31 0.66 4.62 1.32 7 2 C7 2.66 7 3.32 7 4 C4.69 3.67 2.38 3.34 0 3 C0 2.01 0 1.02 0 0 Z " fill="#216741" transform="translate(204,370)"/>
<path d="M0 0 C0.66 0 1.32 0 2 0 C2 1.65 2 3.3 2 5 C2.66 5.33 3.32 5.66 4 6 C3.01 6.495 3.01 6.495 2 7 C0.4375 5.75 0.4375 5.75 -1 4 C-0.6875 1.8125 -0.6875 1.8125 0 0 Z " fill="#216A41" transform="translate(204,355)"/>
<path d="M0 0 C2 3 2 3 2 6 C1.34 6 0.68 6 0 6 C0 7.65 0 9.3 0 11 C-0.33 11 -0.66 11 -1 11 C-1.0270043 9.54176788 -1.04639787 8.08339325 -1.0625 6.625 C-1.07410156 5.81289063 -1.08570313 5.00078125 -1.09765625 4.1640625 C-1 2 -1 2 0 0 Z " fill="#4E8B6B" transform="translate(202,344)"/>
<path d="M0 0 C2.97 0.33 5.94 0.66 9 1 C7 3 7 3 4.5 3.3125 C3.2625 3.1578125 3.2625 3.1578125 2 3 C1.34 2.01 0.68 1.02 0 0 Z " fill="#4D8869" transform="translate(260,343)"/>
<path d="M0 0 C0 0.66 0 1.32 0 2 C-2.64 2.33 -5.28 2.66 -8 3 C-5.53387212 -0.1151089 -3.89156016 -0.31553191 0 0 Z " fill="#357E56" transform="translate(224,305)"/>
<path d="M0 0 C-1 3 -1 3 -4 5 C-6.1875 4.625 -6.1875 4.625 -8 4 C-2.25 0 -2.25 0 0 0 Z " fill="#307A51" transform="translate(269,282)"/>
<path d="M0 0 C3.68754757 0.49831724 5.60490662 1.10067643 8 4 C7.67 4.66 7.34 5.32 7 6 C5.83054208 5.19152271 4.66449539 4.37810888 3.5 3.5625 C2.8503125 3.11003906 2.200625 2.65757812 1.53125 2.19140625 C1.0259375 1.79824219 0.520625 1.40507812 0 1 C0 0.67 0 0.34 0 0 Z " fill="#2D7951" transform="translate(71,262)"/>
<path d="M0 0 C0.66 0.66 1.32 1.32 2 2 C1.01 2.99 0.02 3.98 -1 5 C-0.67 3.35 -0.34 1.7 0 0 Z " fill="#538F6F" transform="translate(172,361)"/>
<path d="M0 0 C2.64 0 5.28 0 8 0 C8 0.33 8 0.66 8 1 C5.36 1 2.72 1 0 1 C0 0.67 0 0.34 0 0 Z " fill="#549276" transform="translate(167,318)"/>
<path d="M0 0 C1.65 0 3.3 0 5 0 C5 0.33 5 0.66 5 1 C3.35 1 1.7 1 0 1 C0 0.67 0 0.34 0 0 Z " fill="#529174" transform="translate(152,318)"/>
<path d="M0 0 C0 3 0 3 0 3 Z " fill="#568F72" transform="translate(225,347)"/>
<path d="M0 0 C0.99 0.33 1.98 0.66 3 1 C2.01 1 1.02 1 0 1 C0 0.67 0 0.34 0 0 Z " fill="#539173" transform="translate(123,314)"/>
<path d="M0 0 C0.99 0.33 1.98 0.66 3 1 C2.01 1.33 1.02 1.66 0 2 C0 1.34 0 0.68 0 0 Z " fill="#519073" transform="translate(80,300)"/>
<path d="" fill="#548E73" transform="translate(0,0)"/>
<path d="M0 0 C0.66 0 1.32 0 2 0 C1.67 0.66 1.34 1.32 1 2 C0.67 1.34 0.34 0.68 0 0 Z " fill="#508A6E" transform="translate(17,244)"/>
<path d="" fill="#549575" transform="translate(0,0)"/>
<path d="M0 0 C0.99 0.495 0.99 0.495 2 1 C1.01 1.495 1.01 1.495 0 2 C0 1.34 0 0.68 0 0 Z " fill="#4E886C" transform="translate(79,80)"/>
<path d="" fill="#538D6F" transform="translate(0,0)"/>
<path d="" fill="#538C6E" transform="translate(0,0)"/>
<path d="" fill="#558E6F" transform="translate(0,0)"/>
<path d="M0 0 C2 1 2 1 2 1 Z " fill="#529175" transform="translate(160,318)"/>
<path d="M0 0 C2 1 2 1 2 1 Z " fill="#549676" transform="translate(187,317)"/>
<path d="M0 0 C2 1 2 1 2 1 Z " fill="#539474" transform="translate(138,317)"/>
<path d="M0 0 C2 1 2 1 2 1 Z " fill="#539274" transform="translate(95,306)"/>
<path d="M0 0 C2 1 2 1 2 1 Z " fill="#51896B" transform="translate(363,304)"/>
<path d="" fill="#539273" transform="translate(0,0)"/>
<path d="" fill="#509074" transform="translate(0,0)"/>
<path d="M0 0 C2 1 2 1 2 1 Z " fill="#4F8669" transform="translate(105,123)"/>
<path d="" fill="#519273" transform="translate(0,0)"/>
<path d="" fill="#4E886C" transform="translate(0,0)"/>
<path d="" fill="#4F8A6E" transform="translate(0,0)"/>
<path d="" fill="#518C6F" transform="translate(0,0)"/>
<path d="" fill="#4E8A6D" transform="translate(0,0)"/>
<path d="" fill="#4F8B6E" transform="translate(0,0)"/>
<path d="" fill="#508B6F" transform="translate(0,0)"/>
<path d="" fill="#4E8366" transform="translate(0,0)"/>
<path d="" fill="#548A6C" transform="translate(0,0)"/>
<path d="" fill="#52856B" transform="translate(0,0)"/>
<path d="" fill="#53886B" transform="translate(0,0)"/>
<path d="" fill="#528268" transform="translate(0,0)"/>
<path d="" fill="#50896E" transform="translate(0,0)"/>
<path d="" fill="#51886B" transform="translate(0,0)"/>
<path d="" fill="#548B6D" transform="translate(0,0)"/>
<path d="" fill="#52896B" transform="translate(0,0)"/>
<path d="" fill="#538B70" transform="translate(0,0)"/>
<path d="" fill="#52896B" transform="translate(0,0)"/>
<path d="" fill="#5A9070" transform="translate(0,0)"/>
<path d="" fill="#5E9577" transform="translate(0,0)"/>
<path d="" fill="#5A9174" transform="translate(0,0)"/>
<path d="" fill="#558E6F" transform="translate(0,0)"/>
<path d="" fill="#558D6E" transform="translate(0,0)"/>
<path d="" fill="#599476" transform="translate(0,0)"/>
<path d="" fill="#55886E" transform="translate(0,0)"/>
<path d="" fill="#558D70" transform="translate(0,0)"/>
<path d="" fill="#549070" transform="translate(0,0)"/>
<path d="" fill="#538A6C" transform="translate(0,0)"/>
<path d="" fill="#568D70" transform="translate(0,0)"/>
<path d="" fill="#559071" transform="translate(0,0)"/>
<path d="" fill="#508467" transform="translate(0,0)"/>
<path d="" fill="#568D71" transform="translate(0,0)"/>
<path d="" fill="#558D72" transform="translate(0,0)"/>
<path d="" fill="#569071" transform="translate(0,0)"/>
<path d="" fill="#5C9275" transform="translate(0,0)"/>
<path d="" fill="#548F72" transform="translate(0,0)"/>
<path d="" fill="#599275" transform="translate(0,0)"/>
<path d="" fill="#599275" transform="translate(0,0)"/>
<path d="" fill="#578E73" transform="translate(0,0)"/>
<path d="" fill="#508A6B" transform="translate(0,0)"/>
<path d="" fill="#4E8165" transform="translate(0,0)"/>
<path d="" fill="#518A6B" transform="translate(0,0)"/>
<path d="" fill="#54886A" transform="translate(0,0)"/>
<path d="" fill="#589375" transform="translate(0,0)"/>
<path d="" fill="#538569" transform="translate(0,0)"/>
<path d="" fill="#51876B" transform="translate(0,0)"/>
<path d="" fill="#569075" transform="translate(0,0)"/>
<path d="" fill="#558B6F" transform="translate(0,0)"/>
<path d="" fill="#4F8568" transform="translate(0,0)"/>
<path d="" fill="#589679" transform="translate(0,0)"/>
<path d="" fill="#538F76" transform="translate(0,0)"/>
<path d="" fill="#529176" transform="translate(0,0)"/>
<path d="" fill="#519273" transform="translate(0,0)"/>
<path d="" fill="#579172" transform="translate(0,0)"/>
<path d="" fill="#589073" transform="translate(0,0)"/>
<path d="" fill="#569072" transform="translate(0,0)"/>
<path d="" fill="#549376" transform="translate(0,0)"/>
<path d="" fill="#539377" transform="translate(0,0)"/>
<path d="" fill="#529275" transform="translate(0,0)"/>
<path d="" fill="#519274" transform="translate(0,0)"/>
<path d="" fill="#52896D" transform="translate(0,0)"/>
<path d="" fill="#538A6E" transform="translate(0,0)"/>
<path d="" fill="#53896E" transform="translate(0,0)"/>
<path d="" fill="#549171" transform="translate(0,0)"/>
<path d="" fill="#4F9072" transform="translate(0,0)"/>
<path d="" fill="#52876B" transform="translate(0,0)"/>
<path d="" fill="#53886D" transform="translate(0,0)"/>
<path d="" fill="#588B73" transform="translate(0,0)"/>
<path d="" fill="#548C6E" transform="translate(0,0)"/>
<path d="" fill="#548C70" transform="translate(0,0)"/>
<path d="" fill="#548B6F" transform="translate(0,0)"/>
<path d="" fill="#4D8B72" transform="translate(0,0)"/>
<path d="" fill="#519073" transform="translate(0,0)"/>
<path d="" fill="#569578" transform="translate(0,0)"/>
<path d="" fill="#529274" transform="translate(0,0)"/>
<path d="" fill="#529475" transform="translate(0,0)"/>
<path d="" fill="#528E73" transform="translate(0,0)"/>
<path d="" fill="#518D71" transform="translate(0,0)"/>
<path d="" fill="#559575" transform="translate(0,0)"/>
<path d="" fill="#549577" transform="translate(0,0)"/>
<path d="" fill="#539174" transform="translate(0,0)"/>
<path d="" fill="#559078" transform="translate(0,0)"/>
<path d="" fill="#518D70" transform="translate(0,0)"/>
<path d="" fill="#579475" transform="translate(0,0)"/>
<path d="" fill="#539276" transform="translate(0,0)"/>
<path d="" fill="#529374" transform="translate(0,0)"/>
<path d="" fill="#549074" transform="translate(0,0)"/>
<path d="" fill="#548C73" transform="translate(0,0)"/>
<path d="" fill="#50856D" transform="translate(0,0)"/>
<path d="" fill="#549375" transform="translate(0,0)"/>
<path d="" fill="#538A71" transform="translate(0,0)"/>
<path d="" fill="#519074" transform="translate(0,0)"/>
<path d="" fill="#549374" transform="translate(0,0)"/>
<path d="" fill="#528369" transform="translate(0,0)"/>
<path d="" fill="#53856B" transform="translate(0,0)"/>
<path d="" fill="#529273" transform="translate(0,0)"/>
<path d="" fill="#549375" transform="translate(0,0)"/>
<path d="" fill="#549173" transform="translate(0,0)"/>
<path d="" fill="#4F8E70" transform="translate(0,0)"/>
<path d="" fill="#529175" transform="translate(0,0)"/>
<path d="" fill="#549275" transform="translate(0,0)"/>
<path d="" fill="#538F73" transform="translate(0,0)"/>
<path d="" fill="#53876F" transform="translate(0,0)"/>
<path d="" fill="#52866D" transform="translate(0,0)"/>
<path d="" fill="#509176" transform="translate(0,0)"/>
<path d="" fill="#54886F" transform="translate(0,0)"/>
<path d="" fill="#51876C" transform="translate(0,0)"/>
<path d="" fill="#4F886B" transform="translate(0,0)"/>
<path d="" fill="#508B6C" transform="translate(0,0)"/>
<path d="" fill="#529171" transform="translate(0,0)"/>
<path d="" fill="#529072" transform="translate(0,0)"/>
<path d="" fill="#518B6F" transform="translate(0,0)"/>
<path d="" fill="#50886B" transform="translate(0,0)"/>
<path d="" fill="#52886D" transform="translate(0,0)"/>
<path d="" fill="#548E70" transform="translate(0,0)"/>
<path d="" fill="#548E71" transform="translate(0,0)"/>
<path d="" fill="#528D72" transform="translate(0,0)"/>
<path d="" fill="#4F876A" transform="translate(0,0)"/>
<path d="" fill="#4C8267" transform="translate(0,0)"/>
<path d="" fill="#4E8B6E" transform="translate(0,0)"/>
<path d="" fill="#4C8A6F" transform="translate(0,0)"/>
<path d="" fill="#4F8568" transform="translate(0,0)"/>
<path d="" fill="#4D8467" transform="translate(0,0)"/>
</svg>
